<?xml version="1.0" encoding="utf-8"?>
<!-- Generator: Adobe Illustrator 29.3.1, SVG Export Plug-In . SVG Version: 9.03 Build 55982)  -->
<svg version="1.1" baseProfile="tiny" id="Camada_1"
	 xmlns="http://www.w3.org/2000/svg" xmlns:xlink="http://www.w3.org/1999/xlink" x="0px" y="0px" viewBox="0 0 182 41"
	 overflow="visible" xml:space="preserve">
<path display="none" fill="#615EFC" d="M20.2,40.3c-4.3,0-7.8-3.5-7.8-7.8v-1.7h3.2v1.7c0,2.6,2.1,4.7,4.7,4.7s4.7-2.1,4.7-4.7v-7.7
	h7.7c2.6,0,4.7-2.1,4.7-4.7c0-2.6-2.1-4.7-4.7-4.7H22.1v10.9H19V12.3h13.5c4.3,0,7.8,3.5,7.8,7.8S36.8,28,32.5,28H28v4.5
	C28,36.8,24.5,40.3,20.2,40.3z"/>
<path display="none" fill="#111032" d="M13.9,28H7.8C3.5,28,0,24.5,0,20.2s3.5-7.8,7.8-7.8h4.5V7.8c0-4.3,3.5-7.8,7.8-7.8
	C24.5,0,28,3.5,28,7.8v2.2h-3.2V7.8c0-2.6-2.1-4.7-4.7-4.7s-4.7,2.1-4.7,4.7v7.7H7.8c-2.6,0-4.7,2.1-4.7,4.7c0,2.6,2.1,4.7,4.7,4.7
	h6.1L13.9,28z"/>
<image display="none" width="134" height="20" xlink:href="7DC2048094B9D560.png"  transform="matrix(1 0 0 1 48 10)">
</image>
<g>
	<g>
		<g>
			<path fill="#3C3835" d="M53.8,24v0.1v0.1l0,0c0,0,0,0,0-0.1C53.9,24.1,53.9,24,53.8,24C53.9,24,53.9,23.9,53.8,24
				c0-0.1,0-0.1,0-0.1l0,0l0,0l0,0l0,0C53.8,23.7,53.8,23.9,53.8,24C53.8,23.9,53.8,23.9,53.8,24 M54.2,30.8
				c-0.1-0.7-0.3-1.5-0.4-2.2h-0.1V28c-0.1-0.1-0.3,0-0.4,0c0-0.1,0-0.1,0-0.3v0.1c-0.3,0-0.3,0.1-0.3,0.1c-0.7,0-0.1-0.4-0.1-0.9
				c0.1,0,0.1,0,0.3,0v0.3c-0.1,0-0.1,0-0.3,0c0.1,0.1,0.1,0.1,0.3,0c0.3,0.1,0.4,0,0.7,0l0.1-0.9h-0.4c-0.3,0-0.6,0-0.6-0.3
				c0-0.1,0-0.3,0-0.4c0-0.1,0-0.1,0-0.3c0-0.3,0-0.3,0-0.4c0.4,0,0.1-0.1,0.4-0.4c0.1-0.3,0.6,0.1,0.4-0.3c0-0.3-0.1-0.7,0-0.7
				c0.3,0,0.3,1.3,0,1.3c-0.1,0-0.1,0.1-0.1,0.3v0.7c0.6,0,0.9-0.1,1-0.4c-0.1-0.1-0.1-0.3-0.3-0.4c-0.1-0.1,0.1-0.3,0-0.3
				c0-0.1,0-0.1,0-0.1s0,0,0.1,0c0-0.1,0-0.1,0-0.1c0.6,0,0.1-0.7,1-0.7c1.5,0,1.5,1.9-0.1,2.1c0.1,0.7,0,2.4,0.7,2.8l-0.3,0.3
				c0.1,0.7-0.3,0.6-0.3,0.7c0,0.4,0.1,0.3-0.1,0.3c-0.1,0.4-0.1,0.7-0.3,1.2L54.2,30.8L54.2,30.8z"/>
			<path fill-rule="evenodd" fill="#BDCCC6" d="M53.2,23.1c0.1,0,0.1,0.4,0.3,0.4c0.1,0.1,0.1,0.1,0.1,0.3c-0.3,0-0.7,0.1-0.7-0.4
				C52.7,23.3,53,23.1,53.2,23.1"/>
			<path fill-rule="evenodd" fill="#BDCCC6" d="M51.2,22.4c0.3,0,0.4,0.1,0.4,0.4c0,0.1-0.1,0.4-0.4,0.4s-0.4-0.1-0.4-0.4
				C50.8,22.7,50.9,22.4,51.2,22.4"/>
			<path fill-rule="evenodd" fill="#D7804F" d="M50.6,21.3c0.3,0,0.4,0.1,0.4,0.4c0,0.3-0.1,0.4-0.4,0.4s-0.4-0.1-0.4-0.4
				C50.2,21.5,50.5,21.3,50.6,21.3"/>
			<path fill-rule="evenodd" fill="#D7804F" d="M52.4,23c0.1,0,0.3,0.1,0.3,0.3c0,0.1-0.1,0.3-0.3,0.3s-0.3-0.1-0.3-0.3
				C52.1,23.1,52.3,23,52.4,23"/>
		</g>
		<g>
			<path fill-rule="evenodd" fill="#9D4E34" d="M35.9,18.5c0.9,0,1.6,0.7,1.6,1.6s-0.7,1.6-1.6,1.6s-1.6-0.7-1.6-1.6
				S35,18.5,35.9,18.5"/>
			<path fill-rule="evenodd" fill="#BDCCC6" d="M40.8,16c1.8,0,3.3,1.5,3.3,3.3s-1.5,3.3-3.3,3.3s-3.3-1.5-3.3-3.3
				C37.7,17.5,39.1,16,40.8,16"/>
			<path fill-rule="evenodd" fill="#F7F2D9" d="M26.1,16.7c2.1,0,3.7,1.6,3.7,3.7s-1.6,3.7-3.7,3.7s-3.7-1.6-3.7-3.7
				S24,16.7,26.1,16.7"/>
			<path fill-rule="evenodd" fill="#D7804F" d="M27.2,10.5c1.6,0,3,1.3,3,3s-1.3,3-3,3s-3-1.3-3-3S25.4,10.5,27.2,10.5"/>
			<path fill-rule="evenodd" fill="#AEB595" d="M34.7,12.4c1.5,0,2.7,1.2,2.7,2.7s-1.2,2.7-2.7,2.7c-1.5,0-2.7-1.2-2.7-2.7
				S33.3,12.4,34.7,12.4"/>
			<path fill-rule="evenodd" fill="#F7F2D9" d="M40.7,11.2c1,0,1.9,0.9,1.9,1.9s-0.9,1.9-1.9,1.9s-1.9-0.9-1.9-1.9
				C38.9,12.1,39.6,11.2,40.7,11.2"/>
			<path fill-rule="evenodd" fill="#3C3835" d="M33.4,25c0.1-0.3,8.8-6.8,5.9-5.4l-3.3,2.4c-0.3,0-0.1-0.7,0.1-1.3
				c0.4-1-1,1.2-1.3,1.9c-0.3,0.4-1.6,1.2-1.8,0.7c-0.4-1-0.4-4,0.1-5.8c0.3-0.6,0.6-1.2,1.5-1.3c1.3-0.3,0-0.7-1.6,0.7
				c-0.7,0.6-0.6,1.5-0.9,1.5c-1.9-0.1-2.2-4.6-4.9-3.1c3,0.1,2.2,2.7,4,4.3c0.6,0.4,0,2.4,0.3,3.6c-0.1,0.6-2.5-1.3-3.4-1.6
				c-2.7-1.2,2.8,2.5,3,2.7c0.4,0.6,0.3,5.2,0.3,6.5h1.8C33.3,29.8,33,25.6,33.4,25"/>
			<path fill-rule="evenodd" fill="#AEB595" d="M21.5,13c1.2,0,2.2,1,2.2,2.4s-1,2.4-2.4,2.4s-2.2-1-2.2-2.4S20.2,13,21.5,13"/>
			<path fill-rule="evenodd" fill="#D7804F" d="M38.2,5.4c1.5,0,2.5,1.2,2.5,2.5s-1.2,2.5-2.5,2.5c-1.3,0-2.5-1-2.5-2.5
				C35.6,6.6,36.8,5.4,38.2,5.4"/>
			<path fill-rule="evenodd" fill="#9D4E34" d="M25.5,5.9c1.2,0,2.1,1,2.1,2.1s-1,2.1-2.1,2.1c-1.2,0-2.1-1-2.1-2.1
				S24.3,5.9,25.5,5.9"/>
			<path fill-rule="evenodd" fill="#BDCCC6" d="M31.9,6.3c1.5,0,2.7,1.2,2.7,2.7s-1.2,2.7-2.7,2.7c-1.5,0-2.7-1.2-2.7-2.7
				S30.4,6.3,31.9,6.3"/>
			<path fill-rule="evenodd" fill="#F18E0C" d="M30.3,2c1,0,1.8,0.7,1.8,1.8s-0.7,1.8-1.8,1.8c-1,0-1.8-0.7-1.8-1.8S29.2,2,30.3,2"
				/>
		</g>
		<g>
			<path fill-rule="evenodd" fill="#AEB595" d="M46.2,26.8c0-2.4,1-4.5,2.5-6.1c1.5-1.5,3.7-2.5,6.1-2.5c2.4,0,4.5,1,6.1,2.5
				c1.5,1.5,2.5,3.7,2.5,6.1c0,0.6,0,1-0.1,1.6c-0.1,0.7-0.3,1.3-0.6,1.9h1.2c0.3-0.6,0.4-1.3,0.6-1.9c0.1-0.4,0.1-1,0.1-1.6
				c0-2.7-1-5.1-2.8-6.8s-4.2-2.8-6.8-2.8c-2.7,0-5.1,1-6.8,2.8c-1.8,1.8-2.8,4.2-2.8,6.8c0,0.6,0,1,0.1,1.6h1
				C46.2,27.9,46.2,27.3,46.2,26.8"/>
			<path fill-rule="evenodd" fill="#F18E0C" d="M44.9,26.8c0-2.7,1-5.2,2.8-7s4.2-2.8,7-2.8c2.8,0,5.2,1,7,2.8
				c1.8,1.8,2.8,4.2,2.8,7c0,0.6,0,1-0.1,1.6c-0.1,0.7-0.3,1.3-0.6,1.9h1.2c0.3-0.6,0.4-1.3,0.4-1.9c0.1-0.4,0.1-1,0.1-1.6
				c0-3-1.2-5.6-3.1-7.7c-1.9-1.9-4.6-3.1-7.7-3.1c-3.1,0-5.6,1.2-7.7,3.1c-2.1,1.9-3.1,4.6-3.1,7.7c0,0.6,0,1,0.1,1.6h1
				C45,27.9,44.9,27.3,44.9,26.8"/>
			<path fill-rule="evenodd" fill="#9D4E34" d="M43.7,26.8c0-3.1,1.2-5.8,3.3-7.9c1.9-1.9,4.8-3.3,7.9-3.3s5.8,1.2,7.9,3.3
				c1.9,1.9,3.3,4.8,3.3,7.9c0,0.6,0,1-0.1,1.6c-0.1,0.7-0.3,1.3-0.4,1.9h1c0.1-0.6,0.3-1.3,0.4-1.9c0-0.4,0.1-1,0.1-1.6
				c0-3.4-1.3-6.4-3.6-8.6s-5.2-3.6-8.6-3.6s-6.4,1.3-8.6,3.6s-3.6,5.2-3.6,8.6c0,0.6,0,1,0.1,1.6h1C43.7,27.9,43.7,27.3,43.7,26.8"
				/>
		</g>
	</g>
	<g>
		<g>
			<path fill="#3C3835" d="M72.1,17.9c0-1.8,0-3.6,0-3.9c0-0.6,0.3-0.9,0.9-0.9c0.6,0,0.9,0.3,0.9,0.9c0,0.3,0,1.2,0,4.2
				c0,3.6-0.3,10.5,0,11.4c0,0.3,0,0.9-0.6,1.2c0,0-0.3,0-0.6,0c-0.3,0-0.6-0.3-0.9-0.6C71.8,29.5,71.8,29.5,72.1,17.9z"/>
			<path fill="#3C3835" d="M76,20.3c0.3-0.6,0.6-0.9,1.2-0.6c0.6,0.3,0.9,0.6,0.6,1.2c0,0.6-0.3,3.3-0.6,5.4
				c0.3-0.3,0.3-0.6,0.6-1.2c2.1-4.2,2.7-5.4,3.6-5.4c0.3,0,0.6,0,0.9,0.3c0.6,0.6,0.6,1.5,0.9,4.5c0,1.2,0.3,3.3,0.6,3.9
				c0.3,0,0.6,0.3,0.6,0.6c0,0.6-0.3,0.9-0.6,1.2h-0.3c-0.3,0-0.6,0-0.9-0.3c-0.9-0.6-0.9-2.1-1.2-5.4c0-0.6,0-1.2-0.3-2.1
				c-0.6,0.9-1.2,2.4-1.8,3.3c-1.5,2.7-2.1,3.9-2.4,4.2c-0.3,0-0.3,0.3-0.6,0.3c-0.3,0-0.6,0-0.6-0.3C74.5,29.2,76,20.6,76,20.3z"/>
			<path fill="#3C3835" d="M86.2,18.8c0.3-0.3,0.6-0.3,0.9-0.3s1.5,0,2.4-0.3c0.3,0,0.3,0,0.3,0c0.3-2.1,0.6-3.3,0.9-3.9
				c0.3-0.3,0.6-0.6,0.9-0.6c0.3,0,0.3,0,0.6,0c0.6,0.3,0.6,0.9,0.3,1.2l-0.3,0.3c-0.3,0.3-0.3,1.2-0.6,2.4c2.1,0,2.4,0,2.7,0.6
				c0.3,0.3,0.3,0.9-0.3,1.2c-0.3,0-0.3,0.3-0.6,0.3c-0.3,0-0.3,0-0.6,0c-0.3,0-0.9,0-1.8,0c-0.3,4.2-0.6,9.6,0,10.5
				c0.3,0.3,0.3,0.9,0.3,1.2c-0.3,0.3-0.6,0.3-0.9,0.3c-0.3,0-0.3,0-0.6,0c-1.5-0.9-1.2-7.2-0.9-12c-1.2,0-2.1,0.3-2.7,0.3
				s-0.9,0-0.9-0.3C85.9,20,85.9,19.4,86.2,18.8z"/>
			<path fill="#3C3835" d="M96.4,22.1c0.9-0.9,1.8-1.2,2.7-1.2c0.3,0,0.9,0,1.2,0.3c0.9,0.3,1.5,1.2,1.5,2.1c0,0.6-0.3,1.2-1.2,1.8
				c-1.2,0.6-3,1.2-3.9,0.9c0,0,0,0-0.3,0c0,0.3,0,0.9,0,1.2c0,1.2,1.2,1.8,2.4,1.8c0.9,0,1.8-0.3,1.8-0.3c0.3,0,0.3-0.3,0.6-0.3
				c0.3,0,0.6,0.3,0.9,0.3c0.3,0.3,0.3,0.9-0.3,1.2c-0.3,0.3-1.5,0.9-3,0.9c-2.4,0-4.2-1.2-4.5-3.6C94.3,25.7,94.9,23.6,96.4,22.1z
				 M99.7,23.3C99.7,23,99.7,23,99.7,23.3c-0.6-0.3-1.2-0.3-2.1,0.3c-0.3,0.3-0.3,0.3-0.6,0.6C97.9,24.2,99.7,23.6,99.7,23.3z"/>
			<path fill="#3C3835" d="M108,20.3c0.9-0.3,1.5,0,1.8,0.6l0,0c0.3,0,0.6,0,0.6,0.3c1.5,1.5,2.1,11.1-0.3,15.3
				c-0.9,2.1-2.4,3-4.2,3c-0.3,0-0.9,0-1.2,0c-0.6,0-0.9-0.6-0.6-1.2c0-0.6,0.6-0.9,1.2-0.6c1.2,0.3,2.1,0,3-1.2
				c2.1-2.7,2.1-8.7,1.5-11.7c-0.6,2.1-2.1,4.8-4.5,4.8c-1.2,0-2.4-0.6-2.4-2.1C103,25.1,106.3,20.9,108,20.3z M104.8,27.5
				c1.5,0.3,2.4-1.8,3.3-4.2c0-0.3,0.3-0.6,0.3-0.6C107.2,23.3,104.8,26,104.8,27.5z"/>
			<path fill="#3C3835" d="M113.4,25.1c0-4.5,0-4.8,0-4.8c0-0.6,0.6-0.9,1.2-0.9c0.6,0,0.9,0.6,0.9,1.2c0,0.3,0,0.9,0,2.1
				c0.6-0.9,0.9-1.5,1.8-2.1c0.9-0.9,2.1-1.2,3.3-0.9c0.6,0,0.9,0.6,0.9,1.2c0,0.6-0.6,0.9-1.2,0.9s-1.2,0-1.8,0.6
				c-2.1,1.8-3,6.9-3,7.8c0,0.3,0,0.9-0.6,0.9h-0.3c-0.6,0-0.9-0.6-0.9-1.2l0,0C113.4,28.9,113.4,27.8,113.4,25.1z"/>
			<path fill="#3C3835" d="M119.1,27.8c0.3-2.4,3-7.5,5.7-7.5c0.6,0,0.9,0.3,1.2,0.3c0.3-0.3,0.6-0.3,0.9-0.3
				c0.3,0.3,0.6,0.6,0.6,0.9v0.3c-0.6,5.4-0.6,6.9-0.6,7.5c0.3,0.3,0.3,0.6,0.3,0.6c0,0.6-0.6,0.9-0.9,0.9l0,0
				c-0.3,0-0.6-0.3-0.9-0.3c-0.3-0.3-0.6-0.9-0.3-4.8c0-1.5-2.7,3.9-3.9,4.2c-0.6,0-0.9,0-1.2-0.3C119.7,29.5,119.1,28.9,119.1,27.8
				z M125.1,22.4C124.8,22.4,124.8,22.4,125.1,22.4c-0.3,0-0.9,0.3-2.1,1.5c-1.2,1.5-1.8,3.3-2.1,3.9
				C121.5,27.5,122.7,26.3,125.1,22.4z"/>
		</g>
		<g>
			<path fill="#9F4F35" d="M130.8,18.5c0-1.8,0-3.6,0-3.9c0-0.6,0.3-0.9,0.9-0.9c0.6,0,0.9,0.3,0.9,0.9c0,0.3,0,1.2,0,3.9
				c0,0.6,0,1.2,0,1.8c1.8-2.1,4.8-4.5,5.1-4.8c1.2-0.9,2.1-1.2,2.7-0.9c0.6,0.3,0.9,0.6,0.6,1.2c0,0.3-0.6,0.6-0.9,0.6
				c-1.2,0.3-5.1,4.2-6.6,5.7l0,0c0.6,0.9,9.3,12,18,14.1c1.2,0.6,2.1,0.6,3,0.6c1.8,0,3.6-0.6,5.1-1.5c0.3,0,0.3-0.3,0.6-0.3
				c0.3,0,0.6,0.3,0.9,0.3c0.3,0.3,0.3,0.9-0.3,1.2c-1.8,1.2-3.9,1.8-6.3,1.8c-8.1,0-17.1-8.4-21.5-14.4c0,2.7,0,5.1,0,5.7
				c0,0.3,0,0.9-0.3,1.2c-0.3,0-0.3,0-0.6,0c-0.3,0-0.6-0.3-0.9-0.6C130.8,30.4,130.8,30.1,130.8,18.5z"/>
			<path fill="#F08E10" d="M141.3,21.8c0-0.9,0-2.4,0-2.7c-0.3-0.3,0-0.9,0.3-1.2c0.3,0,0.3-0.3,0.6-0.3c0.3,0,0.6,0,0.9,0.3
				c0.3,0.3,0.3,0.9,0.3,3.9c0,1.2-0.3,3.6,0,4.2c0.3,0.3,0,0.9-0.3,1.2c-0.3,0.3-0.3,0.3-0.6,0.3c-0.3,0-0.6,0-0.6-0.3
				C141.3,26.6,141.3,25.4,141.3,21.8z M143.1,14c0.6-0.3,1.2,0,1.2,0.6c0.3,0.9,0,2.1-0.9,2.1h-0.3c-0.6,0-0.9-0.3-1.2-0.9
				C141.6,15.2,142.2,14.3,143.1,14z"/>
			<path fill="#BDCCC6" d="M146,21.8c0.9-1.5,2.4-3,4.5-3c0.6,0,0.9,0,1.5,0.3c0.3-3.3,0.6-4.2,0.6-4.8c0.3-0.6,0.9-0.6,1.2-0.6
				c0.6,0.3,0.6,0.9,0.6,1.2c-0.3,0.6-0.6,2.4-0.6,6.3c0,0.3,0,2.7,0,3c0,3.6,0,3.6-0.9,3.9c-0.6,0-0.9-0.3-1.2-0.9c0,0,0-0.9,0-2.4
				c-0.9,1.2-2.7,3-4.2,3c-0.6,0-0.9-0.3-1.2-0.3C144.9,26.6,144.9,23.9,146,21.8z M147.2,26c0,0,0,0,0.3,0c1.5-0.6,3.9-4.2,4.2-4.8
				l0,0c-0.6-0.3-0.9-0.3-1.2-0.3c-1.2,0-2.1,0.9-2.7,1.5C146.9,24.2,146.9,25.7,147.2,26z"/>
			<path fill="#AEB696" d="M157.4,18.5c0.9-0.9,2.4-1.5,3.6-1.5c0.3,0,0.6,0,0.9,0.3c0.3,0.3,1.2,0.9,0.9,2.4c0,0.6-0.6,0.9-1.2,0.9
				c-0.6,0-0.9-0.6-0.9-1.2c0-0.3,0-0.3,0-0.3c-0.9,0-2.7,1.2-3,2.1c0.3,0.3,1.2,0.9,2.1,0.9c1.5,0.6,2.7,1.2,2.7,2.4
				s-2.1,3.9-3.9,4.2c-0.3,0-0.3,0-0.6,0c-0.6,0-1.5-0.3-1.8-0.9c-0.3-0.6,0-1.2,0.3-1.2s0.3,0,0.6,0s0.6,0.3,0.9,0.3
				c0,0.3,0,0,0.3,0c0.9,0,2.1-1.5,2.7-2.4c-0.3-0.3-0.9-0.6-1.5-0.6c-1.2-0.6-2.7-1.2-3-2.4C155.6,20.3,156.5,19.1,157.4,18.5z"/>
		</g>
	</g>
</g>
</svg>
