<?xml version="1.0" encoding="UTF-8"?>
<svg id="Camada_1" xmlns="http://www.w3.org/2000/svg" xmlns:xlink="http://www.w3.org/1999/xlink" version="1.1" viewBox="0 0 182 41">
  <!-- Generator: Adobe Illustrator 29.3.1, SVG Export Plug-In . SVG Version: 2.1.0 Build 151)  -->
  <defs>
    <style>
      .st0 {
        fill: none;
      }

      .st1 {
        fill: #d7804f;
      }

      .st1, .st2, .st3, .st4, .st5, .st6, .st7 {
        fill-rule: evenodd;
      }

      .st8 {
        fill: #f08e10;
      }

      .st9 {
        fill: #aeb696;
      }

      .st10 {
        fill: #615efc;
      }

      .st11 {
        fill: #9f4f35;
      }

      .st2 {
        fill: #f7f2d9;
      }

      .st3 {
        fill: #f18e0c;
      }

      .st4 {
        fill: #aeb595;
      }

      .st12, .st7 {
        fill: #3c3835;
      }

      .st5, .st13 {
        fill: #bdccc6;
      }

      .st6 {
        fill: #9d4e34;
      }

      .st14 {
        display: none;
      }

      .st15 {
        fill: #111032;
      }

      .st16 {
        clip-path: url(#clippath);
      }
    </style>
    <clipPath id="clippath">
      <rect class="st0" x="48.3" y="10.7" width="133" height="19"/>
    </clipPath>
  </defs>
  <path class="st10" d="M20.2,40.3c-4.3,0-7.8-3.5-7.8-7.8v-1.7h3.2v1.7c0,2.6,2.1,4.7,4.7,4.7s4.7-2.1,4.7-4.7v-7.7h7.7c2.6,0,4.7-2.1,4.7-4.7s-2.1-4.7-4.7-4.7h-10.3v10.9h-3.2v-14.1h13.5c4.3,0,7.8,3.5,7.8,7.8s-3.5,7.8-7.8,7.8h-4.5v4.5c0,4.3-3.5,7.8-7.8,7.8Z"/>
  <path class="st15" d="M13.9,28h-6.1c-4.3,0-7.8-3.5-7.8-7.8s3.5-7.8,7.8-7.8h4.5v-4.5c0-4.3,3.5-7.8,7.8-7.8s7.8,3.5,7.8,7.8v2.2h-3.2v-2.2c0-2.6-2.1-4.7-4.7-4.7s-4.7,2.1-4.7,4.7v7.7h-7.7c-2.6,0-4.7,2.1-4.7,4.7s2.1,4.7,4.7,4.7h6.1v3.2Z"/>
  <g class="st16">
    <g>
      <path class="st10" d="M52.2,29.7h-3.8V10.7h4.3l6.3,14.2,6.3-14.2h4.3v19h-3.8v-12.3l-5.3,12.3h-3l-5.3-12.3v12.3ZM87.2,13.7h-10v4.8h7.5v3h-7.5v5.1h10v3.1h-13.8V10.7h13.8v3.1ZM97.8,10.7c2.1,0,3.9.4,5.5,1.2,1.6.8,2.8,1.9,3.6,3.3.9,1.4,1.3,3.1,1.3,5s-.4,3.6-1.3,5-2.1,2.5-3.6,3.3c-1.5.8-3.4,1.2-5.5,1.2h-7.3V10.7h7.3ZM97.7,26.6c2.1,0,3.7-.6,4.9-1.7,1.1-1.1,1.7-2.7,1.7-4.7s-.6-3.6-1.7-4.8c-1.1-1.2-2.8-1.7-4.9-1.7h-3.4v12.9h3.4Z"/>
      <path class="st15" d="M111,10.7h3.8v19h-3.8V10.7ZM127.3,29.7h-4.4l-5.5-19h4.1l3.6,14.8,3.9-14.8h4.2l3.9,14.7,3.6-14.7h4.1l-5.5,19h-4.4l-3.8-13.6-3.8,13.6ZM161.2,13.7h-10v4.8h7.5v3h-7.5v5.1h10v3.1h-13.8V10.7h13.8v3.1ZM176.1,16.1c0-.8-.3-1.4-.8-1.8-.5-.4-1.3-.6-2.2-.6h-4.8v4.8h4.8c1,0,1.7-.2,2.2-.6.5-.4.8-1,.8-1.8ZM164.5,29.7V10.7h9.1c1.4,0,2.5.2,3.5.7.9.4,1.6,1,2.1,1.8.5.7.7,1.6.7,2.5s-.2,1.5-.5,2.1c-.3.6-.8,1-1.3,1.4-.5.3-1.2.6-1.9.7v.2c.9.1,1.6.3,2.2.7.6.3,1.1.8,1.4,1.5.3.6.5,1.4.5,2.3s-.3,1.9-.8,2.7c-.5.8-1.2,1.4-2.2,1.8-1,.4-2.1.7-3.5.7h-9.5ZM168.3,26.6h5.2c1,0,1.8-.2,2.3-.6.6-.4.8-1.1.8-1.9s-.3-1.5-.9-1.9c-.6-.4-1.4-.7-2.3-.7h-5.1v5.1Z"/>
    </g>
  </g>
  <g class="st14">
    <g>
      <g>
        <path class="st12" d="M53.8,24h0v.3h0c.1-.1.1-.3,0-.3.1,0,.1-.1,0,0h0c0-.3,0-.1,0,0q0-.1,0,0M54.2,30.8c-.1-.7-.3-1.5-.4-2.2h-.1v-.6c-.1-.1-.3,0-.4,0v-.3h0c-.3.1-.3.3-.3.3-.7,0-.1-.4-.1-.9h.3v.3h-.3q.1.1.3,0c.3.1.4,0,.7,0v-.9c.1,0-.3,0-.3,0-.3,0-.6,0-.6-.3v-1.2c.4,0,.1-.1.4-.4.1-.3.6.1.4-.3,0-.3-.1-.7,0-.7.3,0,.3,1.3,0,1.3s-.1.1-.1.3v.7c.6,0,.9-.1,1-.4-.1-.1-.1-.3-.3-.4-.1-.1.1-.3,0-.3h0q0-.1.1-.1h0c.6-.1.1-.9,1-.9,1.5,0,1.5,1.9-.1,2.1.1.7,0,2.4.7,2.8l-.3.3c.1.7-.3.6-.3.7,0,.4.1.3-.1.3-.1.4-.1.7-.3,1.2l-.9-.3h0Z"/>
        <path class="st5" d="M53.2,23.1c.1,0,.1.4.3.4q.1.1.1.3c-.3,0-.7.1-.7-.4-.1-.1.1-.3.3-.3"/>
        <path class="st5" d="M51.2,22.4c.3,0,.4.1.4.4s-.1.4-.4.4-.4-.1-.4-.4.1-.4.4-.4"/>
        <path class="st1" d="M50.6,21.3c.3,0,.4.1.4.4s-.1.4-.4.4-.4-.1-.4-.4c0-.3.3-.4.4-.4"/>
        <path class="st1" d="M52.4,23c.1,0,.3.1.3.3s-.1.3-.3.3-.3-.1-.3-.3c0-.1.1-.3.3-.3"/>
      </g>
      <g>
        <path class="st6" d="M35.9,18.5c.9,0,1.6.7,1.6,1.6s-.7,1.6-1.6,1.6-1.6-.7-1.6-1.6.7-1.6,1.6-1.6"/>
        <path class="st5" d="M40.8,16c1.8,0,3.3,1.5,3.3,3.3s-1.5,3.3-3.3,3.3-3.3-1.5-3.3-3.3c.1-1.8,1.5-3.3,3.3-3.3"/>
        <path class="st2" d="M26.1,16.7c2.1,0,3.7,1.6,3.7,3.7s-1.6,3.7-3.7,3.7-3.7-1.6-3.7-3.7c0-2.1,1.6-3.7,3.7-3.7"/>
        <path class="st1" d="M27.2,10.5c1.6,0,3,1.3,3,3s-1.3,3-3,3-3-1.3-3-3,1.2-3,3-3"/>
        <path class="st4" d="M34.7,12.4c1.5,0,2.7,1.2,2.7,2.7s-1.2,2.7-2.7,2.7-2.7-1.2-2.7-2.7,1.2-2.7,2.7-2.7"/>
        <path class="st2" d="M40.7,11.2c1,0,1.9.9,1.9,1.9s-.9,1.9-1.9,1.9-1.9-.9-1.9-1.9c.1-1,.9-1.9,1.9-1.9"/>
        <path class="st7" d="M33.4,25c.1-.3,8.8-6.8,5.9-5.4l-3.3,2.4c-.3,0-.1-.7.1-1.3.4-1-1,1.2-1.3,1.9-.3.4-1.6,1.2-1.8.7-.4-1-.4-4,.1-5.8.3-.6.6-1.2,1.5-1.3,1.3-.3,0-.7-1.6.7-.7.6-.6,1.5-.9,1.5-1.9-.1-2.2-4.6-4.9-3.1,3,.1,2.2,2.7,4,4.3.6.4,0,2.4.3,3.6-.1.6-2.5-1.3-3.4-1.6-2.7-1.2,2.8,2.5,3,2.7.4.6.3,5.2.3,6.5h1.8c0-1-.3-5.2.1-5.8"/>
        <path class="st4" d="M21.5,13c1.2,0,2.2,1,2.2,2.4s-1,2.4-2.4,2.4-2.2-1-2.2-2.4,1-2.4,2.4-2.4"/>
        <path class="st1" d="M38.2,5.4c1.5,0,2.5,1.2,2.5,2.5s-1.2,2.5-2.5,2.5-2.5-1-2.5-2.5,1.2-2.5,2.5-2.5"/>
        <path class="st6" d="M25.5,5.9c1.2,0,2.1,1,2.1,2.1s-1,2.1-2.1,2.1-2.1-1-2.1-2.1.9-2.1,2.1-2.1"/>
        <path class="st5" d="M31.9,6.3c1.5,0,2.7,1.2,2.7,2.7s-1.2,2.7-2.7,2.7-2.7-1.2-2.7-2.7,1.2-2.7,2.7-2.7"/>
        <path class="st3" d="M30.3,2c1,0,1.8.7,1.8,1.8s-.7,1.8-1.8,1.8-1.8-.7-1.8-1.8.7-1.8,1.8-1.8"/>
      </g>
      <g>
        <path class="st4" d="M46.2,26.8c0-2.4,1-4.5,2.5-6.1,1.5-1.5,3.7-2.5,6.1-2.5s4.5,1,6.1,2.5c1.5,1.5,2.5,3.7,2.5,6.1s0,1-.1,1.6c-.1.7-.3,1.3-.6,1.9h1.2c.3-.6.4-1.3.6-1.9.1-.4.1-1,.1-1.6,0-2.7-1-5.1-2.8-6.8-1.8-1.8-4.2-2.8-6.8-2.8s-5.1,1-6.8,2.8c-1.8,1.8-2.8,4.2-2.8,6.8s0,1,.1,1.6h1c-.3-.6-.3-1.2-.3-1.6"/>
        <path class="st3" d="M44.9,26.8c0-2.7,1-5.2,2.8-7s4.2-2.8,7-2.8,5.2,1,7,2.8,2.8,4.2,2.8,7,0,1-.1,1.6c-.1.7-.3,1.3-.6,1.9h1.2c.3-.6.4-1.3.4-1.9.1-.4.1-1,.1-1.6,0-3-1.2-5.6-3.1-7.7-1.9-1.9-4.6-3.1-7.7-3.1s-5.6,1.2-7.7,3.1-3.1,4.6-3.1,7.7,0,1,.1,1.6h1c0-.6-.1-1.2-.1-1.6"/>
        <path class="st6" d="M43.7,26.8c0-3.1,1.2-5.8,3.3-7.9,1.9-1.9,4.8-3.3,7.9-3.3s5.8,1.2,7.9,3.3,3.3,4.8,3.3,7.9,0,1-.1,1.6c-.1.7-.3,1.3-.4,1.9h1c.1-.6.3-1.3.4-1.9,0-.4.1-1,.1-1.6,0-3.4-1.3-6.4-3.6-8.6-2.2-2.2-5.2-3.6-8.6-3.6s-6.4,1.3-8.6,3.6c-2.2,2.2-3.6,5.2-3.6,8.6s0,1,.1,1.6h1c-.1-.6-.1-1.2-.1-1.6"/>
      </g>
    </g>
    <g>
      <g>
        <path class="st12" d="M72.1,17.9v-3.9c0-.6.3-.9.9-.9s.9.3.9.9v4.2c0,3.6-.3,10.5,0,11.4,0,.3,0,.9-.6,1.2h-.6c-.3,0-.6-.3-.9-.6q0-.6.3-12.3Z"/>
        <path class="st12" d="M76,20.3c.3-.6.6-.9,1.2-.6.6.3.9.6.6,1.2,0,.6-.3,3.3-.6,5.4.3-.3.3-.6.6-1.2,2.1-4.2,2.7-5.4,3.6-5.4s.6,0,.9.3c.6.6.6,1.5.9,4.5,0,1.2.3,3.3.6,3.9.3,0,.6.3.6.6,0,.6-.3.9-.6,1.2h-.3c-.3,0-.6,0-.9-.3-.9-.6-.9-2.1-1.2-5.4,0-.6,0-1.2-.3-2.1-.6.9-1.2,2.4-1.8,3.3-1.5,2.7-2.1,3.9-2.4,4.2-.3,0-.3.3-.6.3s-.6,0-.6-.3c-1.2-.6.3-9.3.3-9.6Z"/>
        <path class="st12" d="M86.2,18.8c.3-.3.6-.3.9-.3s1.5,0,2.4-.3h.3c.3-2.1.6-3.3.9-3.9.3-.3.6-.6.9-.6h.6c.6.3.6.9.3,1.2l-.3.3c-.3.3-.3,1.2-.6,2.4,2.1,0,2.4,0,2.7.6.3.3.3.9-.3,1.2-.3,0-.3.3-.6.3h-2.4c-.3,4.2-.6,9.6,0,10.5.3.3.3.9.3,1.2-.3.3-.6.3-.9.3h-.6c-1.5-.9-1.2-7.2-.9-12-1.2,0-2.1.3-2.7.3s-.9,0-.9-.3c.6.3.6-.3.9-.9Z"/>
        <path class="st12" d="M96.4,22.1c.9-.9,1.8-1.2,2.7-1.2s.9,0,1.2.3c.9.3,1.5,1.2,1.5,2.1s-.3,1.2-1.2,1.8c-1.2.6-3,1.2-3.9.9h-.3v1.2c0,1.2,1.2,1.8,2.4,1.8s1.8-.3,1.8-.3c.3,0,.3-.3.6-.3s.6.3.9.3c.3.3.3.9-.3,1.2-.3.3-1.5.9-3,.9-2.4,0-4.2-1.2-4.5-3.6,0-1.5.6-3.6,2.1-5.1ZM99.7,23.3q0-.3,0,0c-.6-.3-1.2-.3-2.1.3q-.3.3-.6.6c.9,0,2.7-.6,2.7-.9Z"/>
        <path class="st12" d="M108,20.3c.9-.3,1.5,0,1.8.6h0c.3,0,.6,0,.6.3,1.5,1.5,2.1,11.1-.3,15.3-.9,2.1-2.4,3-4.2,3h-1.2c-.6,0-.9-.6-.6-1.2,0-.6.6-.9,1.2-.6,1.2.3,2.1,0,3-1.2,2.1-2.7,2.1-8.7,1.5-11.7-.6,2.1-2.1,4.8-4.5,4.8s-2.4-.6-2.4-2.1c0-2.4,3.3-6.6,5.1-7.2ZM104.8,27.5c1.5.3,2.4-1.8,3.3-4.2,0-.3.3-.6.3-.6-1.2.6-3.6,3.3-3.6,4.8Z"/>
        <path class="st12" d="M113.4,25.1v-4.8c0-.6.6-.9,1.2-.9s.9.6.9,1.2v2.1c.6-.9.9-1.5,1.8-2.1.9-.9,2.1-1.2,3.3-.9.6,0,.9.6.9,1.2s-.6.9-1.2.9-1.2,0-1.8.6c-2.1,1.8-3,6.9-3,7.8s0,.9-.6.9h-.3c-.6,0-.9-.6-.9-1.2h0c-.3-.9-.3-2.1-.3-4.8Z"/>
        <path class="st12" d="M119.1,27.8c.3-2.4,3-7.5,5.7-7.5s.9.3,1.2.3c.3-.3.6-.3.9-.3.3.3.6.6.6.9v.3c-.6,5.4-.6,6.9-.6,7.5.3.3.3.6.3.6,0,.6-.6.9-.9.9h0c-.3,0-.6-.3-.9-.3-.3-.3-.6-.9-.3-4.8,0-1.5-2.7,3.9-3.9,4.2-.6,0-.9,0-1.2-.3-.3.3-.9-.3-.9-1.5ZM125.1,22.4q-.3,0,0,0c-.3,0-.9.3-2.1,1.5-1.2,1.5-1.8,3.3-2.1,3.9.6-.3,1.8-1.5,4.2-5.4Z"/>
      </g>
      <g>
        <path class="st11" d="M130.8,18.5v-3.9c0-.6.3-.9.9-.9s.9.3.9.9v5.7c1.8-2.1,4.8-4.5,5.1-4.8,1.2-.9,2.1-1.2,2.7-.9.6.3.9.6.6,1.2,0,.3-.6.6-.9.6-1.2.3-5.1,4.2-6.6,5.7h0c.6.9,9.3,12,18,14.1,1.2.6,2.1.6,3,.6,1.8,0,3.6-.6,5.1-1.5.3,0,.3-.3.6-.3s.6.3.9.3c.3.3.3.9-.3,1.2-1.8,1.2-3.9,1.8-6.3,1.8-8.1,0-17.1-8.4-21.5-14.4v5.7c0,.3,0,.9-.3,1.2h-.6c-.3,0-.6-.3-.9-.6-.3.3-.3,0-.3-11.7Z"/>
        <path class="st8" d="M141.3,21.8v-2.7c-.3-.3,0-.9.3-1.2.3,0,.3-.3.6-.3s.6,0,.9.3c.3.3.3.9.3,3.9s-.3,3.6,0,4.2c.3.3,0,.9-.3,1.2s-.3.3-.6.3-.6,0-.6-.3c-.6-.6-.6-1.8-.6-5.4ZM143.1,14c.6-.3,1.2,0,1.2.6.3.9,0,2.1-.9,2.1h-.3c-.6,0-.9-.3-1.2-.9-.3-.6.3-1.5,1.2-1.8Z"/>
        <path class="st13" d="M146,21.8c.9-1.5,2.4-3,4.5-3s.9,0,1.5.3c.3-3.3.6-4.2.6-4.8.3-.6.9-.6,1.2-.6.6.3.6.9.6,1.2-.3.6-.6,2.4-.6,6.3v3q0,3.6-.9,3.9c-.6,0-.9-.3-1.2-.9v-2.4c-.9,1.2-2.7,3-4.2,3s-.9-.3-1.2-.3c-1.5-.9-1.5-3.6-.3-5.7ZM147.2,26h.3c1.5-.6,3.9-4.2,4.2-4.8h0c-.6-.3-.9-.3-1.2-.3-1.2,0-2.1.9-2.7,1.5-.9,1.8-.9,3.3-.6,3.6Z"/>
        <path class="st9" d="M157.4,18.5c.9-.9,2.4-1.5,3.6-1.5s.6,0,.9.3,1.2.9.9,2.4c0,.6-.6.9-1.2.9s-.9-.6-.9-1.2v-.3c-.9,0-2.7,1.2-3,2.1.3.3,1.2.9,2.1.9,1.5.6,2.7,1.2,2.7,2.4s-2.1,3.9-3.9,4.2h-.6c-.6,0-1.5-.3-1.8-.9-.3-.6,0-1.2.3-1.2h.6c.3,0,.6.3.9.3,0,.3,0,0,.3,0,.9,0,2.1-1.5,2.7-2.4-.3-.3-.9-.6-1.5-.6-1.2-.6-2.7-1.2-3-2.4-.9-1.2,0-2.4.9-3Z"/>
      </g>
    </g>
  </g>
</svg>