<?xml version="1.0" encoding="UTF-8"?>
<svg id="Camada_1" xmlns="http://www.w3.org/2000/svg" version="1.1" viewBox="0 0 60 60">
  <!-- Generator: Adobe Illustrator 29.3.1, SVG Export Plug-In . SVG Version: 2.1.0 Build 151)  -->
  <defs>
    <style>
      .st0 {
        fill: #9e4e35;
      }
    </style>
  </defs>
  <path class="st0" d="M30.7,55c0,.5.4.9.9.9s.9-.4.9-.9v-7.1c0-.5-.4-.9-.9-.9s-.9.4-.9.9v7.1Z"/>
  <path class="st0" d="M31.6,43.3c.5,0,.9-.4.9-.9v-7.1c0-.5,0-1.1.2-1.5,0-.5-.2-1-.7-1.1s-1,.2-1.1.7c-.2.7-.2,1.3-.2,1.9v7.1c0,.5.4.9.9.9Z"/>
  <path class="st0" d="M28.8,35.3c0-1.6-.5-3.2-1.4-4.5-.3-.4-.8-.5-1.2-.2s-.5.8-.2,1.2c.8,1.1,1.2,2.2,1.2,3.6v1.8c0,.5.4.9.9.9s.9-.4.9-.9v-1.8h0Z"/>
  <path class="st0" d="M27.9,39.9c-.5,0-.9.4-.9.9v7.1c0,.5.4.9.9.9s.9-.4.9-.9v-7.1c0-.5-.4-.9-.9-.9Z"/>
  <path class="st0" d="M59.2,21.9c0-1.4-.2-2.8-.7-4.1-.2-.5-.7-.7-1.1-.5-.5.2-.7.7-.5,1.1.4,1.2.6,2.3.6,3.6,0,4.6-2.9,8.7-7.2,10.2,0-2.5-1.1-4.8-2.8-6.6-1.6-1.8-3.8-3-6.2-3.4,0-2.6-1.3-4.9-3.3-6.4,2-2.8,5.2-4.4,8.8-4.4s6.3,1.4,8.4,3.9c.3.4.9.4,1.3,0,.4-.3.4-.9,0-1.3-1.6-2-3.8-3.5-6.3-4.1,0-.5.2-1,.2-1.3,0-3.5-2.8-6.3-6.3-6.3s-2.8.5-3.8,1.3c-1.7-1.9-4.2-3.2-7.1-3.2s-5.9,1.4-7.6,3.8c-1.5-1.3-3.6-1.9-5.6-1.9s-2.4.3-3.6.8c-.5.2-.7.7-.5,1.2s.7.7,1.2.5c.9-.4,1.8-.6,2.9-.6,1.7,0,3.4.6,4.6,1.7-.7,1.3-1.1,2.8-1.1,4.3s.2,2,.5,3h-.5c-1.6,0-3.2.6-4.4,1.5-1.2-2.6-3.4-4.6-6.1-5.5.3-.8.6-1.4,1.2-2.1.3-.4.2-1-.2-1.3s-1-.2-1.3.2c-.7.9-1.2,1.8-1.4,2.8h-1.3C4.8,8.8.4,13.2.4,18.6s2.4,7.5,6,9c-.4,1.1-.6,2.3-.6,3.5,0,5.9,4.8,10.7,10.7,10.7s5.2-1.1,7.2-2.8v6.9c0,.5.4.9.9.9s.9-.4.9-.9v-10.4c0-1.6-1-3.1-2.4-3.8l-1.9-1h2c.6,0,1.3-.3,1.6-.8.4-.5.5-1.2.4-1.7l-.7-2.7,2.5,2.5c1.6,1.6,4.4,1.6,6.1,0l2.5-2.5-.7,2.7c-.2.6,0,1.3.4,1.7s1,.8,1.6.8h2l-1.9,1c-1.4.8-2.4,2.2-2.4,3.8v18.3c0,1.2.5,2.2,1.3,3.1l1.1,1.1h-13.7l1.1-1.1c.8-.8,1.3-1.9,1.3-3.1v-3.8c0-.5-.4-.9-.9-.9s-.9.4-.9.9v3.8c0,.7-.3,1.3-.8,1.8l-1.5,1.5c-.4.4-.6,1.1-.3,1.5s.8.9,1.3.9h15.1c.6,0,1.1-.4,1.3-.9s0-1.2-.3-1.5l-1.5-1.5c-.5-.5-.8-1.2-.8-1.8v-10.9c1.2.4,2.4.6,3.6.6,5.5,0,10-4.1,10.6-9.4,5.3-1.5,9-6.4,9-12h0l-.4-.2ZM44.1,4c2.5,0,4.5,2,4.5,4.5s0,.7,0,1.1c-.6,0-1.2,0-1.7,0-1.4,0-2.8.2-4,.7h0c0-1.8-.6-3.6-1.4-5.1.8-.7,1.8-1,2.8-1h0ZM25.2,10c0-4.3,3.6-7.9,7.9-7.9s7.9,3.6,7.9,7.9,0,.5,0,.8c-1.7.9-3.2,2.2-4.3,3.8-1.3-.7-2.7-1.1-4.1-1.1s-3,.4-4.3,1.1c-.6-.6-1.3-1-2.1-1.3-.5-1.1-.8-2.2-.8-3.4h0ZM2,18.3c0-4.4,3.7-8.1,8.1-8.1s6.6,2.3,7.7,5.6c-.9,1.2-1.4,2.7-1.4,4.2s0,0,0,0h0c-4,0-7.6,2.3-9.4,5.6-3-1.3-4.9-4.1-4.9-7.4h0ZM23.1,28.6s0,0-.2,0h-3.3c-.7,0-1.3.5-1.4,1.2s.2,1.3.8,1.6l3.1,1.5c.9.5,1.4,1.3,1.4,2.3v.9c-1.7,2.2-4.3,3.6-7.2,3.6-4.9,0-9-4-9-9s4-9,9-9,.2,0,.3,0c.8,2.9,3.3,5.1,6.4,5.3l.3,1.2v.3h0ZM22.9,23.1c-.6.3-.9,1-.7,1.6l.2.8c-2.5-.5-4.3-2.7-4.3-5.3s2.4-5.4,5.4-5.4,5.4,2.4,5.4,5.4-1.1,3.8-2.7,4.7l-1.4-1.4c-.5-.5-1.2-.6-1.7-.2h0v-.2ZM34.9,23.3l-3.3,3.3c-1,1-2.7,1-3.7,0l-.5-.5c1.9-1.3,3.2-3.6,3.2-6s-.5-2.9-1.3-4c1-.5,2-.7,3.1-.7,3.9,0,7.2,3.2,7.2,7.2s-1.3,4.7-3.3,6.1v-.2l1-3.8c.2-.7,0-1.3-.7-1.6-.6-.3-1.3-.2-1.7.2h0ZM39.6,41.6c-1.3,0-2.5-.3-3.6-.8v-5.6c0-1,.6-1.8,1.4-2.3l3.1-1.5c.6-.3.9-1,.8-1.6s-.8-1.2-1.4-1.2h-1.1c1.3-1.3,2.1-3.1,2.4-4.9,4.2.8,7.3,4.4,7.3,8.9s-4,9-9,9h0Z"/>
</svg>