<?xml version="1.0" encoding="UTF-8"?>
<svg id="Camada_1" xmlns="http://www.w3.org/2000/svg" version="1.1" viewBox="0 0 60 60">
  <!-- Generator: Adobe Illustrator 29.3.1, SVG Export Plug-In . SVG Version: 2.1.0 Build 151)  -->
  <defs>
    <style>
      .st0 {
        fill: #9e4e35;
      }
    </style>
  </defs>
  <path class="st0" d="M46.4,37.8h-1.4v-3.6c0-2.6-1-5.1-2.9-7-1.9-1.9-4.3-2.9-7-3h0s0,0,0,0h-10.2c-5.5,0-10,4.5-10,10v3.6h-1.4c-2.9,0-5.2,2.3-5.2,5.2s2.3,5.2,5.2,5.2h1.8c1.7,6.5,7.6,11.3,14.6,11.3s12.9-4.8,14.6-11.3h1.8c2.9,0,5.2-2.3,5.2-5.2,0-2.9-2.3-5.2-5.2-5.2h0ZM41.6,34.2v5.5c-1.4-.2-2.5-1.4-2.5-2.8s-1.2-3.8-3-4.5c.5-.9.8-1.9.8-3v-1.4c2.7.8,4.7,3.3,4.7,6.2h0ZM18.4,34.2c0-3.6,2.9-6.5,6.5-6.5h8.5v1.7c0,1.4-1.2,2.6-2.6,2.6h-5.1c-2.7,0-4.9,2.2-4.9,4.9,0,1.5-1.1,2.7-2.5,2.9v-5.5ZM13.6,44.8c-1,0-1.8-.8-1.8-1.8s.8-1.8,1.8-1.8h1.4v3.5s-1.4,0-1.4,0ZM30,56.1c-6.4,0-11.6-5.2-11.6-11.6v-1.3c3.3-.2,5.9-3,5.9-6.3,0-.8.7-1.4,1.5-1.4h8.4c.8,0,1.5.7,1.5,1.5,0,3.4,2.6,6.1,5.9,6.3v1.3c0,6.4-5.2,11.6-11.6,11.6h0ZM46.4,44.8h-1.4v-3.5h1.4c1,0,1.8.8,1.8,1.8s-.8,1.8-1.8,1.8h0ZM46.4,44.8"/>
  <path class="st0" d="M34.1,42.8c-.6,1.1.2,2.6,1.5,2.6,1.2,0,2.1-1.3,1.6-2.4-.5-1.3-2.5-1.4-3.1-.2h0ZM34.1,42.8"/>
  <path class="st0" d="M25.8,42.8c-.6-1.2-2.4-1.2-3.1,0-.6,1.1.2,2.6,1.5,2.6,1.3,0,2.1-1.4,1.5-2.6h0ZM25.8,42.8"/>
  <path class="st0" d="M32.4,48.1h-4.7c-1,0-1.7.8-1.7,1.7s.8,1.7,1.7,1.7h4.7c1,0,1.7-.8,1.7-1.7s-.8-1.7-1.7-1.7h0ZM32.4,48.1"/>
  <path class="st0" d="M26,7.9c1,0,1.7-.8,1.7-1.7s1-2.3,2.3-2.3,2.3,1,2.3,2.3-1,2.3-2.3,2.3-1.7.8-1.7,1.7v2.5c0,1,.8,1.7,1.7,1.7s1.7-.8,1.7-1.7v-1.1c2.3-.7,4-2.9,4-5.5S33.2.4,30,.4s-5.8,2.6-5.8,5.8.8,1.7,1.7,1.7h0ZM26,7.9"/>
  <path class="st0" d="M28.3,18c-.5,1.1.4,2.4,1.6,2.4,1.2,0,2.1-1.3,1.6-2.4-.6-1.4-2.6-1.4-3.2,0h0ZM28.3,18"/>
  <path class="st0" d="M53.8,8.5c-3.2,0-5.8,2.6-5.8,5.8s.8,1.7,1.7,1.7,1.7-.8,1.7-1.7,1-2.3,2.3-2.3,2.3,1,2.3,2.3-1,2.3-2.3,2.3-1.7.8-1.7,1.7v2.5c0,1,.8,1.7,1.7,1.7s1.7-.8,1.7-1.7v-1.1c2.3-.7,4-2.9,4-5.5s-2.6-5.8-5.8-5.8h0ZM53.8,8.5"/>
  <path class="st0" d="M52.2,25.9c-.6,1.1.2,2.6,1.5,2.6,1.5,0,2.3-1.9,1.2-3-.8-.8-2.2-.6-2.8.4h0ZM52.2,25.9"/>
  <path class="st0" d="M12,14.3c0-3.2-2.6-5.8-5.8-5.8S.4,11.1.4,14.3s.8,1.7,1.7,1.7,1.7-.8,1.7-1.7,1-2.3,2.3-2.3,2.3,1,2.3,2.3-1,2.3-2.3,2.3-1.7.8-1.7,1.7v2.5c0,1,.8,1.7,1.7,1.7s1.7-.8,1.7-1.7v-1.1c2.3-.7,4-2.9,4-5.5h0ZM12,14.3"/>
  <path class="st0" d="M4.6,25.9c-.6,1.1.2,2.6,1.5,2.6.9,0,1.8-.8,1.7-1.7,0-1.8-2.4-2.4-3.3-.8h0ZM4.6,25.9"/>
</svg>