<?xml version="1.0" encoding="UTF-8"?>
<svg id="Camada_1" xmlns="http://www.w3.org/2000/svg" version="1.1" viewBox="0 0 60 60">
  <!-- Generator: Adobe Illustrator 29.3.1, SVG Export Plug-In . SVG Version: 2.1.0 Build 151)  -->
  <defs>
    <style>
      .st0 {
        fill: #9e4e35;
      }
    </style>
  </defs>
  <path class="st0" d="M52,32.9H8c-.9,0-1.6-.7-1.6-1.6v-1c0-.9.7-1.6,1.6-1.6h44c.9,0,1.6.7,1.6,1.6v1c0,.9-.7,1.6-1.6,1.6ZM8,30.2c0,0-.1,0-.1.1v1c0,0,0,.1.1.1h44c0,0,.1,0,.1-.1v-1c0,0,0-.1-.1-.1H8Z"/>
  <path class="st0" d="M8.2,15.7c-.3,0-.6,0-.9-.3-.4-.2-.6-.6-.7-1l-.2-1c0-.4,0-.8.2-1.2.2-.4.6-.6,1-.7l24.7-5.1c.9-.2,1.7.4,1.9,1.2l.2,1c.2.9-.4,1.7-1.2,1.9l-24.7,5.1h0c-.1,0-.2,0-.3,0ZM8.4,14.9h0,0ZM32.7,7.9s0,0,0,0l-24.7,5.1s0,0,0,0c0,0,0,0,0,0l.2,1s0,0,0,0c0,0,0,0,0,0l24.7-5.1c0,0,0,0,0-.1l-.2-1s0,0-.1,0Z"/>
  <path class="st0" d="M52,53.6H8c-.9,0-1.6-.7-1.6-1.6v-1c0-.9.7-1.6,1.6-1.6h44c.9,0,1.6.7,1.6,1.6v1c0,.9-.7,1.6-1.6,1.6ZM8,50.9c0,0-.1,0-.1.1v1c0,0,0,.1.1.1h44c0,0,.1,0,.1-.1v-1c0,0,0-.1-.1-.1H8Z"/>
  <path class="st0" d="M50.9,50.9h-19c-.4,0-.7-.3-.7-.7v-18c0-.4.3-.7.7-.7h19c.4,0,.7.3.7.7v18c0,.4-.3.7-.7.7ZM32.6,49.4h17.5v-16.5h-17.5v16.5Z"/>
  <path class="st0" d="M31.9,50.9H9.1c-.4,0-.7-.3-.7-.7v-18c0-.4.3-.7.7-.7h22.8c.4,0,.7.3.7.7v18c0,.4-.3.7-.7.7ZM9.8,49.4h21.3v-16.5H9.8v16.5Z"/>
  <path class="st0" d="M31.9,30.2H9.1c-.4,0-.7-.3-.7-.7v-14.6c0-.4.3-.7.7-.7s.7.3.7.7v13.9h21.3V10.1c0-.4.3-.7.7-.7s.7.3.7.7v19.3c0,.4-.3.7-.7.7Z"/>
  <path class="st0" d="M18.8,50.9h-6.9c-.4,0-.7-.3-.7-.7v-7.8c0-2.3,1.9-4.2,4.2-4.2s4.2,1.9,4.2,4.2v7.8c0,.4-.3.7-.7.7ZM12.6,49.4h5.4v-7.1c0-1.5-1.2-2.7-2.7-2.7s-2.7,1.2-2.7,2.7v7.1Z"/>
  <path class="st0" d="M29.1,45.2h-7.8c-.4,0-.7-.3-.7-.7v-5.6c0-.4.3-.7.7-.7h7.8c.4,0,.7.3.7.7v5.6c0,.4-.3.7-.7.7ZM22.1,43.7h6.3v-4.2h-6.3v4.2Z"/>
  <path class="st0" d="M24.4,23.3h-7.8c-.4,0-.7-.3-.7-.7v-5.6c0-.4.3-.7.7-.7h7.8c.4,0,.7.3.7.7v5.6c0,.4-.3.7-.7.7ZM17.3,21.9h6.3v-4.2h-6.3v4.2Z"/>
  <path class="st0" d="M47.8,38.9h-12.8c-.9,0-1.6-.7-1.6-1.6v-.9c0-.9.7-1.6,1.6-1.6h12.8c.9,0,1.6.7,1.6,1.6v.9c0,.9-.7,1.6-1.6,1.6ZM35,36.3c0,0-.1,0-.1.1v.9c0,0,0,.1.1.1h12.8c0,0,.1,0,.1-.1v-.9c0,0,0-.1-.1-.1h-12.8Z"/>
  <path class="st0" d="M47.5,50.9h-12.1c-.4,0-.7-.3-.7-.7v-12c0-.4.3-.7.7-.7h12.1c.4,0,.7.3.7.7v12c0,.4-.3.7-.7.7ZM36.1,49.4h10.7v-10.5h-10.7v10.5Z"/>
  <path class="st0" d="M52,25.4h-20.1c-.4,0-.7-.3-.7-.7v-2.8c0-.4.3-.7.7-.7h20.1c.9,0,1.6.7,1.6,1.6v1.1c0,.9-.7,1.6-1.6,1.6ZM32.6,23.9h19.4c0,0,.1,0,.1-.1v-1.1c0,0,0-.1-.1-.1h-19.4v1.3Z"/>
  <g>
    <path class="st0" d="M50.9,30.2c-.4,0-.7-.3-.7-.7v-4.8c0-.4.3-.7.7-.7s.7.3.7.7v4.8c0,.4-.3.7-.7.7Z"/>
    <path class="st0" d="M46.2,30.2c-.4,0-.7-.3-.7-.7v-4.8c0-.4.3-.7.7-.7s.7.3.7.7v4.8c0,.4-.3.7-.7.7Z"/>
    <path class="st0" d="M41.4,30.2c-.4,0-.7-.3-.7-.7v-4.8c0-.4.3-.7.7-.7s.7.3.7.7v4.8c0,.4-.3.7-.7.7Z"/>
    <path class="st0" d="M36.6,30.2c-.4,0-.7-.3-.7-.7v-4.8c0-.4.3-.7.7-.7s.7.3.7.7v4.8c0,.4-.3.7-.7.7Z"/>
  </g>
  <path class="st0" d="M14,45.7c-.4,0-.7-.3-.7-.7v-1.1c0-.4.3-.7.7-.7s.7.3.7.7v1.1c0,.4-.3.7-.7.7Z"/>
</svg>