<?xml version="1.0" encoding="UTF-8"?>
<svg id="Camada_1" xmlns="http://www.w3.org/2000/svg" version="1.1" viewBox="0 0 71 70">
  <!-- Generator: Adobe Illustrator 29.3.1, SVG Export Plug-In . SVG Version: 2.1.0 Build 151)  -->
  <defs>
    <style>
      .st0 {
        fill: #9e4e35;
      }
    </style>
  </defs>
  <path class="st0" d="M28.1,55h4c.5,0,.9-.4.9-.9s-.4-.9-.9-.9h-4c-1.4,0-2.9-.4-4.1-1.1-.4-.2-1,0-1.3.4s0,1,.4,1.3c1.5.9,3.3,1.3,5,1.3h0Z"/>
  <path class="st0" d="M56.7,60.7l-.4-.6c-.5-.8-1.2-1.3-2.1-1.6-.6-.2-1.2-.2-1.7,0l-7.2-12.7c-.8-1.3-2-2.2-3.5-2.5l-6.9-1.4v-14.2l14.7-1.2c1.4-.1,2.5-1.3,2.5-2.8v-5.3c0-.8-.7-1.5-1.5-1.5h-.3c-1.6,0-2.9,1.1-3.3,2.6l-.3,1.3h-21.1c-2.2,0-4,1.8-4,4v4.8c0,.5.4.9.9.9s.9-.4.9-.9v-4.8c0-1.2,1-2.2,2.2-2.2h7.5v3.5l-4.9.4c-.5,0-.9.5-.8,1,0,.5.4.8.9.8s0,0,0,0l4.7-.4v13.8h-9.6v-7.9c0-.5-.4-.9-.9-.9s-.9.4-.9.9v11c0,1.1.3,2.1.8,3-1,.6-1.9,1.4-2.6,2.2-.3.4-.3,1,0,1.3.2.2.4.2.6.2s.5-.1.7-.3c.7-.7,1.4-1.4,2.4-1.9,1.2,1.2,2.8,1.9,4.6,1.9h4.4c.5,0,.9-.4.9-.9s-.4-.9-.9-.9h-4.4c-2.5,0-4.6-2.1-4.6-4.6v-1.2h10.5l7.5,1.5c1,.2,1.8.8,2.3,1.6l5.3,9.3-3.4,1.9-4.5-7.8c-.3-.5-.8-.8-1.3-.8h-3c-.5,0-.9.4-.9.9s.4.9.9.9h2.8l2.5,4.4s0,.2,0,.4c0,4.8-5.2,8.6-11.5,8.6s-11.5-3.9-11.5-8.6,0-1,.2-1.5c.1-.5-.2-1-.7-1.1-.5-.1-1,.2-1.1.7-.1.6-.2,1.2-.2,1.9,0,2.8,1.4,5.5,4,7.5,2.5,1.9,5.8,3,9.3,3s6.8-1.1,9.3-3c1.9-1.4,3.1-3.3,3.7-5.2l4.3,7.5c.4.7,1.4,1,2.1.6l6-3.5c.7-.4,1-1.4.6-2.1h0ZM46.9,22.5c.7,0,1.3-.5,1.5-1.2l.4-1.5c.2-.7.8-1.2,1.5-1.2h0v5c0,.5-.4.9-.8.9l-14.5,1.2v-3.3h12ZM49.5,64.6l-2.9-5,3.4-1.9,1.5,2.5c.1.2.3.4.6.4.2,0,.5,0,.7,0,.4-.2.8-.3,1.2-.2.4.1.7.4.9.7l.2.4-5.5,3.2Z"/>
  <path class="st0" d="M23.4,16.8c1.2,1.2,2.8,1.9,4.5,1.9h1.9c2.4,0,4.4-2,4.4-4.4v-4.6c0-3.5-2.9-6.3-6.3-6.3s-3.4.7-4.5,1.9h-1.6c-2.2,0-4,1.8-4,4v4.1c0,.8-.7,1.5-1.5,1.5h-.8c-.5,0-.9.2-1.2.6-.3.4-.4.8-.3,1.3.4,2.2,2.4,3.8,4.7,3.8s4.2-1.6,4.7-3.8ZM32.4,14.3c0,1.4-1.1,2.5-2.5,2.5h-1.9c-1.6,0-3.1-.9-3.9-2.3,1.2-1.2,2.1-2.6,2.6-4.2l.2-.6c.1-.4.5-.6.9-.6h4.6c0,.2,0,.4,0,.6v4.6h0ZM27.9,5.3c1.5,0,2.9.8,3.7,2h-3.9c-1.2,0-2.2.8-2.6,1.9l-.2.6c-.3,1-.8,1.8-1.4,2.6v-2.7c0-2.4,2-4.4,4.4-4.4h0ZM16,16.8h.4c1.8,0,3.3-1.5,3.3-3.3v-4.1c0-1.2,1-2.2,2.2-2.2h.4c-.3.8-.5,1.6-.5,2.5v6.1c0,1.6-1.3,2.9-2.9,2.9s-2.4-.8-2.8-2Z"/>
</svg>