<?xml version="1.0" encoding="UTF-8"?>
<svg id="Camada_1" xmlns="http://www.w3.org/2000/svg" version="1.1" viewBox="0 0 71 70">
  <!-- Generator: Adobe Illustrator 29.3.1, SVG Export Plug-In . SVG Version: 2.1.0 Build 151)  -->
  <defs>
    <style>
      .st0 {
        fill: #9e4e35;
      }
    </style>
  </defs>
  <path class="st0" d="M69.8,36c0-4.6-3-8.5-7.1-10,.5-1.2.8-2.6.8-3.9,0-5.1-3.7-9.4-8.6-10.4-.4-5.5-5-9.9-10.7-9.9s-6.7,1.7-8.7,4.4c-1.9-2.7-5.1-4.4-8.7-4.4-5.7,0-10.3,4.4-10.7,9.9-4.9,1-8.6,5.2-8.6,10.4s.3,2.7.8,3.9c-4.2,1.4-7.1,5.4-7.1,10s2.7,8.1,6.5,9.7c-.6,1.3-.9,2.7-.9,4.2,0,2.8,1.1,5.5,3.2,7.5,1.7,1.6,3.7,2.6,6,2.9.6,1.9,1.7,3.7,3.3,5,2,1.7,4.6,2.7,7.2,2.7s7-1.8,9-4.6c2,2.8,5.3,4.6,9,4.6s5.2-.9,7.2-2.7c1.6-1.3,2.7-3.1,3.3-5,2.2-.3,4.3-1.4,6-2.9,2.1-2,3.2-4.7,3.2-7.5s-.3-2.9-.9-4.2c3.9-1.6,6.5-5.4,6.5-9.7h0ZM37.5,12.7c0,0,0-.1,0-.2,0-3.6,3-6.5,6.7-6.5s6.7,2.9,6.7,6.5,0,.6,0,.9c0,.6,0,1.2.5,1.6.4.4.9.7,1.5.7,3.7,0,6.7,2.9,6.7,6.5s-.5,2.9-1.5,4.1c-.5.6-.6,1.4-.3,2.1.3.7,1,1.2,1.8,1.2,2.8.1,5.2,2,6,4.5h-12.2c-1.1,0-2,.9-2,2v2.8c0,1.1-.9,2.1-2.1,2.1s-2.1-.9-2.1-2.1v-2.8c0-1.1-.9-2-2-2h-7.6v-6.2h.8c3.4,0,6.1-2.7,6.1-6.1s-2.7-6.1-6.1-6.1h-.8v-3ZM11.6,29.5c.8,0,1.4-.5,1.8-1.2.3-.7.2-1.5-.3-2.1-1-1.2-1.5-2.6-1.5-4.1,0-3.6,3-6.5,6.7-6.5s1.1-.3,1.5-.7c.4-.4.6-1,.5-1.6,0-.3,0-.6,0-.9,0-3.6,3-6.5,6.7-6.5s6.7,2.9,6.7,6.5,0,.1,0,.2v5.1c0,1.1.9,2,2,2h2.9c1.1,0,2.1.9,2.1,2.1s-.9,2.1-2.1,2.1h-2.9c-1.1,0-2,.9-2,2v8.2h-6.8v-.9c0-3.4-2.7-6.1-6.1-6.1s-6.1,2.7-6.1,6.1v.9H5.5c.8-2.5,3.2-4.4,6-4.5h0ZM26.5,64c-3.4,0-6.4-2.5-6.9-5.8-.1-1-1-1.7-2-1.7-3.7,0-6.8-3-6.8-6.5s.5-3,1.5-4.1c.5-.6.6-1.3.3-2-.3-.7-.9-1.2-1.6-1.3-2.6-.3-4.7-2.1-5.5-4.5h11c1.1,0,2-.9,2-2v-2.9c0-1.1.9-2.1,2.1-2.1s2.1.9,2.1,2.1v2.9c0,1.1.9,2,2,2h8.8v4.5h-.8c-3.4,0-6.1,2.7-6.1,6.1s2.7,6.1,6.1,6.1h.8v2.5s0,0,0,0c0,3.7-3.1,6.8-7,6.8h0ZM60,42.5c-.7,0-1.4.6-1.6,1.3-.3.7-.1,1.5.3,2,1,1.2,1.5,2.6,1.5,4.1,0,3.5-3.1,6.5-6.8,6.5s-1.8.7-2,1.7c-.5,3.3-3.4,5.8-6.9,5.8s-6.9-3-7-6.8c0,0,0,0,0,0s0,0,0,0v-4.5c0-1.1-.9-2-2-2h-2.8c-1.1,0-2.1-.9-2.1-2.1s.9-2.1,2.1-2.1h2.8c1.1,0,2-.9,2-2v-6.5h5.6v.8c0,3.4,2.7,6.1,6.1,6.1s6.1-2.7,6.1-6.1v-.8h10.2c-.8,2.4-2.9,4.1-5.5,4.5h0ZM60,42.5"/>
</svg>