<?xml version="1.0" encoding="UTF-8"?>
<svg id="Camada_1" xmlns="http://www.w3.org/2000/svg" version="1.1" viewBox="0 0 71 70">
  <!-- Generator: Adobe Illustrator 29.3.1, SVG Export Plug-In . SVG Version: 2.1.0 Build 151)  -->
  <defs>
    <style>
      .st0 {
        fill: #9e4e35;
      }
    </style>
  </defs>
  <rect class="st0" x=".4" y="62.8" width="70.3" height="2"/>
  <rect class="st0" x="9.1" y="6.6" width="52.9" height="2"/>
  <rect class="st0" x="58.3" y="7.8" width="2" height="40.6" transform="translate(-2.9 7.3) rotate(-6.9)"/>
  <rect class="st0" x="51.2" y="7.9" width="2" height="39.5"/>
  <path class="st0" d="M41.5,37.3c-.6,0-1-.4-1-1V6.2c0-.6.4-1,1-1s1,.4,1,1v30.1c0,.6-.4,1-1,1Z"/>
  <path class="st0" d="M28.8,23.3c-.6,0-1-.4-1-1V6.2c0-.6.4-1,1-1s1,.4,1,1v16.1c0,.6-.4,1-1,1Z"/>
  <rect class="st0" x="27.8" y="22" width="2" height="11.4"/>
  <rect class="st0" x="27.8" y="44.7" width="2" height="3.3"/>
  <rect class="st0" x="40.5" y="44.7" width="2" height="3.3"/>
  <path class="st0" d="M41.7,45.4h-12.5c-1.5,0-2.8-1.3-2.8-3v-3.4c0-1.6,1.3-3,2.8-3h12.5c1.5,0,2.8,1.3,2.8,3v3.4c0,1.6-1.3,3-2.8,3ZM29.3,38c-.4,0-.8.4-.8,1v3.4c0,.5.4,1,.8,1h12.5c.4,0,.8-.4.8-1v-3.4c0-.5-.4-1-.8-1h-12.5Z"/>
  <path class="st0" d="M42.2,52.7h-14.1c-1.5,0-2.7-1.4-2.7-3s1.2-3,2.7-3h14.1c1.5,0,2.7,1.4,2.7,3s-1.2,3-2.7,3ZM28.1,48.7c-.3,0-.7.4-.7,1s.4,1,.7,1h14.1c.3,0,.7-.4.7-1s-.4-1-.7-1h-14.1Z"/>
  <path class="st0" d="M26.8,9.9c-.6,0-1-.4-1-1v-2.7c0-.6.4-1,1-1s1,.4,1,1v2.7c0,.6-.4,1-1,1Z"/>
  <path class="st0" d="M43.5,9.9c-.6,0-1-.4-1-1v-2.7c0-.6.4-1,1-1s1,.4,1,1v2.7c0,.6-.4,1-1,1Z"/>
  <path class="st0" d="M63.8,63.5l-1.6-14.8h-1.2l1.4,14.6-2,.2-1.4-14.8c0-.5.1-1,.5-1.4.3-.4.8-.6,1.4-.6h1.6c1,0,1.7.7,1.8,1.7l1.6,15-2,.2Z"/>
  <path class="st0" d="M53.2,63.4v-14.7h-1.3v14.7h-2v-14.8c0-.5.1-1,.5-1.3.4-.4.9-.6,1.4-.6h1.6c1,0,1.8.7,1.9,1.7,0,0,0,0,0,0v15s-2,0-2,0Z"/>
  <rect class="st0" x="-9.3" y="27.1" width="40.6" height="2" transform="translate(-18.2 35.6) rotate(-83.1)"/>
  <rect class="st0" x="17.1" y="7.9" width="2" height="39.5"/>
  <path class="st0" d="M6.5,63.5l-2-.2,1.6-15c0-.9.9-1.7,1.8-1.7h1.6c.5,0,1,.2,1.4.6.3.4.5.9.5,1.4l-1.4,14.8-2-.2,1.3-14.6h-1.2l-1.6,14.8Z"/>
  <path class="st0" d="M17.8,63.4h-2s0-15,0-15c0,0,0,0,0,0,0-.9.9-1.7,1.9-1.7h1.6c.5,0,1,.2,1.4.6.3.4.5.9.5,1.3v14.8s-2,0-2,0v-14.7h-1.3v14.7Z"/>
</svg>