<?xml version="1.0" encoding="UTF-8"?>
<svg id="Camada_1" xmlns="http://www.w3.org/2000/svg" version="1.1" viewBox="0 0 71 70">
  <!-- Generator: Adobe Illustrator 29.3.1, SVG Export Plug-In . SVG Version: 2.1.0 Build 151)  -->
  <defs>
    <style>
      .st0 {
        fill: #9e4e35;
      }
    </style>
  </defs>
  <path class="st0" d="M27.5,24.9c2.7,0,5.4-1,7.4-3.1,2-2,3.1-4.6,3.1-7.4s-1.1-5.4-3.1-7.4c-4.1-4.1-10.7-4.1-14.8,0-4.1,4.1-4.1,10.7,0,14.8,2,2,4.7,3.1,7.4,3.1ZM23.5,10.5c1.1-1.1,2.5-1.6,4-1.6s2.9.5,4,1.6c1.1,1.1,1.6,2.5,1.6,4s-.6,2.9-1.6,4c-2.2,2.2-5.8,2.2-8,0-2.2-2.2-2.2-5.8,0-8Z"/>
  <path class="st0" d="M63,56.2l-10.9-10.9c-2-2-5.1-2.2-7.4-.5l-1.4,1-5.6-9.3,1.1.4c2.4.8,5.1-.1,6.5-2.2l5.1-7.6c.7-1.1.4-2.6-.7-3.3-1.1-.7-2.6-.4-3.3.7l-5.1,7.6c-.2.3-.6.4-.9.3l-7.3-2.4s0,0,0,0c0,0-.2,0-.3,0-.1,0-.2,0-.4,0H15.3c-2.4,0-4.6,1.5-5.3,3.9l-2.5,7.5c-.4,1.3.3,2.6,1.5,3.1s.5.1.8.1c1,0,2-.6,2.3-1.7l2.5-7.4c.1-.3.4-.6.8-.6h2.4l8.9,23.7-3.6,2.7c-.3.2-.6.2-.9,0l-7.8-5.2c-1.1-.7-2.6-.4-3.3.7-.7,1.1-.4,2.6.7,3.3l7.8,5.2c.9.6,2,.9,3.1.9s2.4-.4,3.4-1.1l21.7-16.3c.3-.2.8-.2,1.1,0l10.9,10.9c.9.9,2.5.9,3.4,0s.9-2.5,0-3.4ZM22.9,34.6h8l8.5,14.2-8.7,6.6-7.8-20.7Z"/>
</svg>