<?xml version="1.0" encoding="UTF-8"?>
<svg id="Camada_1" xmlns="http://www.w3.org/2000/svg" version="1.1" viewBox="0 0 71 70">
  <!-- Generator: Adobe Illustrator 29.3.1, SVG Export Plug-In . SVG Version: 2.1.0 Build 151)  -->
  <defs>
    <style>
      .st0 {
        fill: #9e4e35;
      }
    </style>
  </defs>
  <path class="st0" d="M67.9,45.8c.7,0,1.4-.6,1.4-1.4V13.4c0-2.2-1.8-4.1-4.1-4.1H5.8c-2.2,0-4.1,1.8-4.1,4.1v43.2c0,2.2,1.8,4.1,4.1,4.1h59.4c2.2,0,4.1-1.8,4.1-4.1v-6.8c0-.7-.6-1.4-1.4-1.4s-1.4.6-1.4,1.4v6.8c0,.7-.6,1.4-1.4,1.4H5.8c-.7,0-1.4-.6-1.4-1.4V13.4c0-.7.6-1.4,1.4-1.4h59.4c.7,0,1.4.6,1.4,1.4v31.1c0,.7.6,1.4,1.4,1.4Z"/>
  <path class="st0" d="M62.5,25.5H8.5c-.7,0-1.4.6-1.4,1.4v27c0,.7.6,1.4,1.4,1.4h54c.7,0,1.4-.6,1.4-1.4v-27c0-.7-.6-1.4-1.4-1.4ZM15.2,52.6h-5.4v-24.3h2.7v14.9c0,.7.6,1.4,1.4,1.4h1.4v8.1ZM15.2,28.2h2.7v13.5h-2.7v-13.5ZM27.4,52.6h-9.5v-8.1h1.4c.7,0,1.4-.6,1.4-1.4v-14.9h4.1v14.9c0,.7.6,1.4,1.4,1.4h1.4v8.1ZM27.4,28.2h2.7v13.5h-2.7v-13.5ZM40.9,52.6h-10.8v-8.1h1.4c.7,0,1.4-.6,1.4-1.4v-14.9h5.4v14.9c0,.7.6,1.4,1.4,1.4h1.4v8.1ZM40.9,28.2h2.7v13.5h-2.7v-13.5ZM53.1,52.6h-9.5v-8.1h1.4c.7,0,1.4-.6,1.4-1.4v-14.9h4.1v14.9c0,.7.6,1.4,1.4,1.4h1.4v8.1ZM53.1,28.2h2.7v13.5h-2.7v-13.5ZM61.2,52.6h-5.4v-8.1h1.4c.7,0,1.4-.6,1.4-1.4v-14.9h2.7v24.3Z"/>
  <path class="st0" d="M46.3,22.8c.7,0,1.4-.6,1.4-1.4v-5.4c0-.7-.6-1.4-1.4-1.4h-21.6c-.7,0-1.4.6-1.4,1.4v5.4c0,.7.6,1.4,1.4,1.4h21.6ZM26,17.4h18.9v2.7h-18.9v-2.7Z"/>
  <path class="st0" d="M59.8,14.7c-2.2,0-4.1,1.8-4.1,4.1s1.8,4.1,4.1,4.1,4.1-1.8,4.1-4.1-1.8-4.1-4.1-4.1ZM59.8,20.1c-.7,0-1.4-.6-1.4-1.4s.6-1.4,1.4-1.4,1.4.6,1.4,1.4-.6,1.4-1.4,1.4Z"/>
  <path class="st0" d="M11.2,22.8c2.2,0,4.1-1.8,4.1-4.1s-1.8-4.1-4.1-4.1-4.1,1.8-4.1,4.1,1.8,4.1,4.1,4.1ZM11.2,17.4c.7,0,1.4.6,1.4,1.4s-.6,1.4-1.4,1.4-1.4-.6-1.4-1.4.6-1.4,1.4-1.4Z"/>
  <path class="st0" d="M53.1,21.5v-5.4c0-.7-.6-1.4-1.4-1.4s-1.4.6-1.4,1.4v5.4c0,.7.6,1.4,1.4,1.4s1.4-.6,1.4-1.4Z"/>
  <path class="st0" d="M20.6,21.5v-5.4c0-.7-.6-1.4-1.4-1.4s-1.4.6-1.4,1.4v5.4c0,.7.6,1.4,1.4,1.4s1.4-.6,1.4-1.4Z"/>
</svg>