<?xml version="1.0" encoding="UTF-8"?>
<svg id="Camada_1" xmlns="http://www.w3.org/2000/svg" version="1.1" viewBox="0 0 71 70">
  <!-- Generator: Adobe Illustrator 29.3.1, SVG Export Plug-In . SVG Version: 2.1.0 Build 151)  -->
  <defs>
    <style>
      .st0 {
        fill: #9e4e35;
      }
    </style>
  </defs>
  <path class="st0" d="M60.4,28.9c-.5-2-1.2-4-2.2-5.9-.3-.5-.9-.7-1.3-.4-.5.3-.7.9-.4,1.3.7,1.3,1.3,2.8,1.7,4.2-1-.2-2.1-.3-3.2-.3h-6.2c-4.3,0-8.3,1.9-11,5.2-.4.4-.3,1,.1,1.4.4.4,1,.3,1.4-.1,2.4-2.8,5.8-4.5,9.5-4.5h6.2c6.8,0,12.4,5.5,12.4,12.4s-1.8,7.5-4.9,9.9c-.8.6-1.3,1.5-1.3,2.5v1.6l-2.8-1.4c-.6-.3-1.2-.4-1.8-.3-.5,0-1,0-1.6,0h-6.2c-6.8,0-12.4-5.5-12.4-12.4s.2-2.8.7-4.1c.2-.5,0-1.1-.6-1.3-.5-.2-1.1,0-1.3.6-.5,1.5-.8,3.1-.8,4.7,0,6.9,4.9,12.7,11.4,14.1-3.2,1.6-6.8,2.4-10.4,2.4-10.9,0-20.5-7.6-23-18.1l1-.5c.2-.1.4-.1.7-.1.6,0,1.2.1,1.8.1h6.2c7.9,0,14.4-6.4,14.4-14.4s-3.6-11-8.6-13.2c2.4-.8,5-1.3,7.6-1.3,7.2,0,14,3.2,18.5,8.9.2.2.5.4.8.4s.4,0,.6-.2c.4-.3.5-1,.2-1.4-4.9-6.1-12.2-9.7-20.1-9.7s-7.3.8-10.7,2.3c-.9-.2-1.8-.3-2.7-.3h-6.2c-1.9,0-3.7.4-5.4,1.1-.5.2-.8.8-.5,1.3s.8.8,1.3.5c1.5-.6,3.1-.9,4.7-.9h6.2c6.8,0,12.4,5.5,12.4,12.4s-5.5,12.4-12.4,12.4h-6.2c-.5,0-1,0-1.6,0-.6,0-1.3,0-1.8.3l-2.8,1.4v-1.6c0-1-.5-1.9-1.3-2.5-3.1-2.4-4.9-6-4.9-9.9s1.4-6.6,3.8-8.9c.4-.4.4-1,0-1.4-.4-.4-1-.4-1.4,0-2.9,2.7-4.4,6.4-4.4,10.4s2.1,8.7,5.7,11.4c.3.2.5.6.5.9v2c0,.6.3,1.1.8,1.5.3.2.6.3.9.3s.5,0,.8-.2l.4-.2c1.4,5.2,4.4,9.9,8.6,13.4,4.6,3.7,10.3,5.8,16.2,5.8s9.8-1.4,13.9-4.1h5.6c.6,0,1.2,0,1.8-.1.2,0,.5,0,.7.1l3.2,1.6c.2.1.5.2.8.2s.6,0,.9-.3c.5-.3.8-.9.8-1.5v-2c0-.4.2-.7.5-.9,3.6-2.7,5.7-6.9,5.7-11.4s-3.7-11.2-9-13.3h0Z"/>
  <path class="st0" d="M12.9,32.9c7.4,0,13.3-6,13.3-13.3s-.4-1-1-1-1,.4-1,1c0,6.3-5.1,11.3-11.3,11.3s-1,.4-1,1,.4,1,1,1Z"/>
  <path class="st0" d="M12.9,28.4c4.9,0,8.8-4,8.8-8.8s-.4-1-1-1-1,.4-1,1c0,3.8-3.1,6.9-6.9,6.9s-1,.4-1,1,.4,1,1,1h0Z"/>
  <path class="st0" d="M12.9,23.9c2.4,0,4.4-2,4.4-4.4s-.4-1-1-1-1,.4-1,1c0,1.3-1.1,2.4-2.4,2.4s-1,.4-1,1,.4,1,1,1Z"/>
  <path class="st0" d="M58.1,35c-7.3,0-13.3,6-13.3,13.3s.4,1,1,1,1-.4,1-1c0-6.3,5.1-11.3,11.3-11.3s1-.4,1-1-.4-1-1-1Z"/>
  <path class="st0" d="M58.1,39.5c-4.9,0-8.8,4-8.8,8.8s.4,1,1,1,1-.4,1-1c0-3.8,3.1-6.9,6.9-6.9s1-.4,1-1-.4-1-1-1Z"/>
  <path class="st0" d="M58.1,44c-2.4,0-4.4,2-4.4,4.4s.4,1,1,1,1-.4,1-1c0-1.3,1.1-2.4,2.4-2.4s1-.4,1-1-.4-1-1-1Z"/>
</svg>