<?xml version="1.0" encoding="UTF-8"?>
<svg id="Camada_1" xmlns="http://www.w3.org/2000/svg" version="1.1" viewBox="0 0 71 70">
  <!-- Generator: Adobe Illustrator 29.3.1, SVG Export Plug-In . SVG Version: 2.1.0 Build 151)  -->
  <defs>
    <style>
      .st0 {
        fill: #9e4e35;
      }

      .st1 {
        display: none;
      }
    </style>
  </defs>
  <g class="st1">
    <path class="st0" d="M28.1,55h4c.5,0,.9-.4.9-.9s-.4-.9-.9-.9h-4c-1.4,0-2.9-.4-4.1-1.1-.4-.2-1,0-1.3.4s0,1,.4,1.3c1.5.9,3.3,1.3,5,1.3h0Z"/>
    <path class="st0" d="M56.7,60.7l-.4-.6c-.5-.8-1.2-1.3-2.1-1.6-.6-.2-1.2-.2-1.7,0l-7.2-12.7c-.8-1.3-2-2.2-3.5-2.5l-6.9-1.4v-14.2l14.7-1.2c1.4-.1,2.5-1.3,2.5-2.8v-5.3c0-.8-.7-1.5-1.5-1.5h-.3c-1.6,0-2.9,1.1-3.3,2.6l-.3,1.3h-21.1c-2.2,0-4,1.8-4,4v4.8c0,.5.4.9.9.9s.9-.4.9-.9v-4.8c0-1.2,1-2.2,2.2-2.2h7.5v3.5l-4.9.4c-.5,0-.9.5-.8,1,0,.5.4.8.9.8s0,0,0,0l4.7-.4v13.8h-9.6v-7.9c0-.5-.4-.9-.9-.9s-.9.4-.9.9v11c0,1.1.3,2.1.8,3-1,.6-1.9,1.4-2.6,2.2-.3.4-.3,1,0,1.3.2.2.4.2.6.2s.5-.1.7-.3c.7-.7,1.4-1.4,2.4-1.9,1.2,1.2,2.8,1.9,4.6,1.9h4.4c.5,0,.9-.4.9-.9s-.4-.9-.9-.9h-4.4c-2.5,0-4.6-2.1-4.6-4.6v-1.2h10.5l7.5,1.5c1,.2,1.8.8,2.3,1.6l5.3,9.3-3.4,1.9-4.5-7.8c-.3-.5-.8-.8-1.3-.8h-3c-.5,0-.9.4-.9.9s.4.9.9.9h2.8l2.5,4.4s0,.2,0,.4c0,4.8-5.2,8.6-11.5,8.6s-11.5-3.9-11.5-8.6,0-1,.2-1.5c.1-.5-.2-1-.7-1.1-.5-.1-1,.2-1.1.7-.1.6-.2,1.2-.2,1.9,0,2.8,1.4,5.5,4,7.5,2.5,1.9,5.8,3,9.3,3s6.8-1.1,9.3-3c1.9-1.4,3.1-3.3,3.7-5.2l4.3,7.5c.4.7,1.4,1,2.1.6l6-3.5c.7-.4,1-1.4.6-2.1h0ZM46.9,22.5c.7,0,1.3-.5,1.5-1.2l.4-1.5c.2-.7.8-1.2,1.5-1.2h0v5c0,.5-.4.9-.8.9l-14.5,1.2v-3.3h12ZM49.5,64.6l-2.9-5,3.4-1.9,1.5,2.5c.1.2.3.4.6.4.2,0,.5,0,.7,0,.4-.2.8-.3,1.2-.2.4.1.7.4.9.7l.2.4-5.5,3.2Z"/>
    <path class="st0" d="M23.4,16.8c1.2,1.2,2.8,1.9,4.5,1.9h1.9c2.4,0,4.4-2,4.4-4.4v-4.6c0-3.5-2.9-6.3-6.3-6.3s-3.4.7-4.5,1.9h-1.6c-2.2,0-4,1.8-4,4v4.1c0,.8-.7,1.5-1.5,1.5h-.8c-.5,0-.9.2-1.2.6-.3.4-.4.8-.3,1.3.4,2.2,2.4,3.8,4.7,3.8s4.2-1.6,4.7-3.8ZM32.4,14.3c0,1.4-1.1,2.5-2.5,2.5h-1.9c-1.6,0-3.1-.9-3.9-2.3,1.2-1.2,2.1-2.6,2.6-4.2l.2-.6c.1-.4.5-.6.9-.6h4.6c0,.2,0,.4,0,.6v4.6h0ZM27.9,5.3c1.5,0,2.9.8,3.7,2h-3.9c-1.2,0-2.2.8-2.6,1.9l-.2.6c-.3,1-.8,1.8-1.4,2.6v-2.7c0-2.4,2-4.4,4.4-4.4h0ZM16,16.8h.4c1.8,0,3.3-1.5,3.3-3.3v-4.1c0-1.2,1-2.2,2.2-2.2h.4c-.3.8-.5,1.6-.5,2.5v6.1c0,1.6-1.3,2.9-2.9,2.9s-2.4-.8-2.8-2Z"/>
  </g>
  <g>
    <path class="st0" d="M7.9,23.4v2.4c0,3.2,2.6,5.7,5.7,5.7s5.7-2.6,5.7-5.7v-2.4c0-3.2-2.6-5.7-5.7-5.7s-5.7,2.6-5.7,5.7ZM17.4,25.8c0,2.1-1.7,3.8-3.8,3.8s-3.8-1.7-3.8-3.8v-.3c1.5-.2,2.8-.9,3.8-2,1,1.1,2.3,1.8,3.8,2v.3ZM13.6,19.6c2.1,0,3.8,1.7,3.8,3.8v.2c-1-.2-1.9-.8-2.6-1.6l-.2-.3c-.2-.3-.6-.5-1-.5s-.8.2-1,.5l-.2.3c-.6.8-1.6,1.4-2.6,1.6v-.2c0-2.1,1.7-3.8,3.8-3.8Z"/>
    <path class="st0" d="M41.2,25.8v-2.4c0-3.2-2.6-5.7-5.7-5.7s-5.7,2.6-5.7,5.7v2.4c0,3.2,2.6,5.7,5.7,5.7s5.7-2.6,5.7-5.7ZM35.5,19.6c2,0,3.6,1.5,3.8,3.5l-.6-.6c-.5-.5-1.3-.8-2-.8h-2.4c-.8,0-1.5.3-2,.8l-.6.6c.2-1.9,1.8-3.5,3.8-3.5h0ZM31.7,25.8v-.5c.5-.2.9-.5,1.3-.8l.7-.7c.2-.2.4-.3.7-.3h2.4c.3,0,.5,0,.7.3l.7.7c.4.4.8.6,1.3.8v.5c0,2.1-1.7,3.8-3.8,3.8-2.1,0-3.8-1.7-3.8-3.8h0Z"/>
    <path class="st0" d="M63.1,25.8v-2.4c0-3.2-2.6-5.7-5.7-5.7s-5.7,2.6-5.7,5.7v2.4c0,3.2,2.6,5.7,5.7,5.7s5.7-2.6,5.7-5.7ZM57.4,19.6c1.7,0,3.2,1.1,3.6,2.7-.9-.4-1.9-.6-2.9-.6h-1.4c-1,0-2,.2-2.9.6.5-1.6,1.9-2.7,3.6-2.7ZM53.6,25.8v-1.2c.9-.7,2-1,3.1-1h1.4c1.1,0,2.2.4,3.1,1v1.2c0,2.1-1.7,3.8-3.8,3.8-2.1,0-3.8-1.7-3.8-3.8h0Z"/>
    <path class="st0" d="M65.2,33.9c2.3-3.5,3.4-7.6,3.1-11.9-.7-9.3-8.3-16.8-17.6-17.4-5.6-.3-11,1.8-14.8,5.8-.2.2-.4.2-.6,0-3.9-4-9.3-6.1-14.8-5.8-1.4,0-2.7.3-4.1.7-.5.1-.8.7-.7,1.2.1.5.7.8,1.2.7,1.2-.3,2.4-.6,3.6-.6,5-.3,9.9,1.6,13.3,5.2.4.5,1,.7,1.7.7s1.2-.3,1.7-.7c3.5-3.6,8.3-5.5,13.3-5.2,8.4.5,15.2,7.2,15.8,15.6.3,4.1-.8,8.1-3.3,11.4,0,0,0,0,0,0h-25.3c-.5,0-1,.4-1,1s.4,1,1,1h4.8v2.1h-1c-.5,0-1,.4-1,1v15h-10v-15c0-.5-.4-1-1-1h-1v-2.1h4.8c.5,0,1-.4,1-1s-.4-1-1-1H8s0,0,0,0c-2.4-3.3-3.6-7.3-3.3-11.4.4-5.4,3.5-10.4,8.2-13.2.5-.3.6-.9.3-1.3-.3-.5-.9-.6-1.3-.3C6.6,10.5,3.2,16,2.8,22c-.3,4.2.8,8.4,3.1,11.9-1.8.7-3.1,2.4-3.1,4.5v20.1c0,1.6,1.3,2.9,2.9,2.9h1.1v2.4c0,.9.7,1.6,1.6,1.6h10.7c.9,0,1.6-.7,1.6-1.6v-14.5c.3.1.6.2,1,.2h1.2l5.9,5.1v9.2c0,.9.7,1.6,1.6,1.6h10.7c.9,0,1.6-.7,1.6-1.6v-9.2l5.9-5.1h1.2c.3,0,.7,0,1-.2v14.5c0,.9.7,1.6,1.6,1.6h10.7c.9,0,1.6-.7,1.6-1.6v-2.4h1.1c1.6,0,2.9-1.3,2.9-2.9v-20.1c0-2.1-1.3-3.8-3.1-4.5h0ZM66.4,38.4v3.2h-2.1v-1c0-.5-.4-1-1-1s-1,.4-1,1v13h-10v-13c0-.5-.4-1-1-1s-1,.4-1,1v1h-2.1v-3.2c0-1.6,1.3-2.9,2.9-2.9h12.2c1.6,0,2.9,1.3,2.9,2.9ZM46.6,37.6h-2.1v-2.1h3c-.4.6-.8,1.3-.9,2.1ZM46.5,39.5v4h-4v-4h4ZM28.6,39.5v4h-4v-4h4ZM26.6,37.6h-2.1c-.1-.8-.4-1.5-.9-2.1h3v2.1ZM5.6,59.5c-.5,0-1-.4-1-1v-15h2.1v2.4c0,.5.4,1,1,1s1-.4,1-1v-5.4c0-.5-.4-1-1-1s-1,.4-1,1v1h-2.1v-3.2c0-1.6,1.3-2.9,2.9-2.9h12.2c1.6,0,2.9,1.3,2.9,2.9v3.2h-2.1v-1c0-.5-.4-1-1-1s-1,.4-1,1v13h-10v-3.1c0-.5-.4-1-1-1s-1,.4-1,1v9.1h-1.1ZM14.6,63.5v-5c0-.5-.4-1-1-1s-1,.4-1,1v5h-4v-8h10v8h-4,0ZM20.5,46.6v-3.1h2.1v1c0,.5.4,1,1,1h5v2.1h-7.1c-.5,0-1-.4-1-1h0ZM28.6,49.5v2.6l-3-2.6h3ZM36.5,63.5v-5c0-.5-.4-1-1-1s-1,.4-1,1v5h-4v-8h10v8h-4ZM42.4,52v-2.6h3l-3,2.6ZM50.5,46.6c0,.5-.4,1-1,1h-7.1v-2.1h5c.5,0,1-.4,1-1v-1h2.1s0,3.1,0,3.1h0ZM62.4,63.5h-4v-5c0-.5-.4-1-1-1s-1,.4-1,1v5h-4v-8h10v8ZM65.4,59.5h-1.1v-16h2.1v15c0,.5-.4,1-1,1Z"/>
  </g>
</svg>