<?xml version="1.0" encoding="UTF-8"?>
<svg id="Camada_1" xmlns="http://www.w3.org/2000/svg" version="1.1" viewBox="0 0 71 70">
  <!-- Generator: Adobe Illustrator 29.3.1, SVG Export Plug-In . SVG Version: 2.1.0 Build 151)  -->
  <defs>
    <style>
      .st0 {
        fill: #9e4e35;
      }
    </style>
  </defs>
  <circle class="st0" cx="35.5" cy="6.6" r="1"/>
  <path class="st0" d="M28.8,21.8h-4.8c-.9,0-1.6.7-1.6,1.6v4.8c0,.9.7,1.6,1.6,1.6h4.8c.9,0,1.6-.7,1.6-1.6v-4.8c0-.9-.7-1.6-1.6-1.6h0ZM28.4,27.9h-4.1v-4.1h4.1v4.1Z"/>
  <path class="st0" d="M33.5,23.8h14.2c.5,0,1-.4,1-1s-.4-1-1-1h-14.2c-.5,0-1,.4-1,1s.4,1,1,1Z"/>
  <path class="st0" d="M33.5,27.9h10.1c.5,0,1-.4,1-1s-.4-1-1-1h-10.1c-.5,0-1,.4-1,1s.4,1,1,1Z"/>
  <path class="st0" d="M22.3,38.4c0,.9.7,1.6,1.6,1.6h4.8c.9,0,1.6-.7,1.6-1.6v-4.8c0-.9-.7-1.6-1.6-1.6h-4.8c-.9,0-1.6.7-1.6,1.6v4.8ZM24.3,34h4.1v4.1h-4.1v-4.1Z"/>
  <path class="st0" d="M33.5,34h14.2c.5,0,1-.4,1-1s-.4-1-1-1h-14.2c-.5,0-1,.4-1,1s.4,1,1,1Z"/>
  <path class="st0" d="M33.5,38h10.1c.5,0,1-.4,1-1s-.4-1-1-1h-10.1c-.5,0-1,.4-1,1s.4,1,1,1Z"/>
  <path class="st0" d="M57.8,18.8c.5,0,1-.4,1-1v-5.9c0-2.3-1.9-4.2-4.2-4.2h-5.9v-.4c0-.9-.7-1.6-1.6-1.6h-6.6c-.5-2.3-2.5-4.1-4.9-4.1s-4.5,1.7-4.9,4.1h-6.6c-.9,0-1.6.7-1.6,1.6v.4h-5.9c-2.3,0-4.2,1.9-4.2,4.2v52.3c0,2.3,1.9,4.2,4.2,4.2h38.1c2.3,0,4.2-1.9,4.2-4.2V22.4c0-.5-.4-1-1-1s-1,.4-1,1v41.8c0,1.3-1,2.3-2.3,2.3H16.4c-1.3,0-2.3-1-2.3-2.3V11.9c0-1.3,1-2.3,2.3-2.3h5.9v2.1h-4.5c-.9,0-1.6.7-1.6,1.6v35.8c0,.5.4,1,1,1s1-.4,1-1V13.7h4.1v1c0,1.6,1.3,2.9,2.9,2.9h4.1c.5,0,1-.4,1-1s-.4-1-1-1h-4.1c-.5,0-1-.4-1-1v-7.1h7.1c.5,0,1-.4,1-1,0-1.7,1.4-3.1,3.1-3.1s3.1,1.4,3.1,3.1.4,1,1,1h7.1v7.1c0,.5-.4,1-1,1h-11.7c-.5,0-1,.4-1,1s.4,1,1,1h11.7c1.6,0,2.9-1.3,2.9-2.9v-1h4.1v48.8H18.2v-8.6c0-.5-.4-1-1-1s-1,.4-1,1v8.9c0,.9.7,1.6,1.6,1.6h35.2c.9,0,1.6-.7,1.6-1.6V13.3c0-.9-.7-1.6-1.6-1.6h-4.5v-2.1h5.9c1.3,0,2.3,1,2.3,2.3v5.9c0,.5.4,1,1,1h0Z"/>
  <path class="st0" d="M41.9,58.3h-3.1c-.4,0-.8-.2-1-.5-.3-.3-.3-.7-.3-1.1,0-.1,0-.3,0-.4,0-1.1-.9-2.1-2.1-2.1-1.8,0-2.1,1.9-2.1,1.9,0,.2,0,.4,0,.6,0,.4,0,.8-.3,1.1-.2.3-.6.5-1,.5h-3.1c-.9,0-1.6-.7-1.6-1.6v-2.4c-2.3,0-4.2-1.9-4.1-4.2,0-1.9,1.5-3.5,3.5-3.8.2,0,.4,0,.6,0v-2.4c0-.9.7-1.6,1.6-1.6h3.1c.4,0,.8.2,1,.5.2.3.3.7.3,1.1,0,.2,0,.5,0,.7,0,0,.3,1.8,2,1.8s2.1-.9,2.1-2.1,0-.3,0-.4c0-.4,0-.8.3-1.1.2-.3.6-.5,1-.5h3.1c.9,0,1.6.7,1.6,1.6v2.4c0,0,.2,0,.3,0,2,.1,3.6,1.7,3.8,3.7.2,2.4-1.7,4.3-4,4.3v2.4c0,.9-.7,1.6-1.6,1.6ZM39.5,56.3h2.1v-2.8c0-.4.2-.8.5-1,.3-.3.7-.3,1.1-.3.1,0,.3,0,.4,0,1.2,0,2.1-1,2.1-2.2,0-1-.9-1.8-1.9-1.9-.2,0-.4,0-.6,0-.4,0-.8,0-1.1-.3-.3-.2-.5-.6-.5-1v-2.8h-2.1s0,0,0,0c0,2.2-1.8,4-4,4s-3.9-2.5-4-3.5c0-.2,0-.4,0-.5h-2.1v2.8c0,.4-.2.8-.5,1-.3.2-.7.3-1.1.3-.2,0-.5,0-.7,0-1,.1-1.7,1-1.8,2,0,1.2.9,2.2,2.1,2.2s.3,0,.4,0c.4,0,.8,0,1.1.3.3.2.5.6.5,1v2.8h2.1c0,0,0-.2,0-.3,0-1.6,1.4-3.8,4-3.8s4,1.8,4,4c0,0,0,0,0,0h0ZM32.2,44.1h0,0Z"/>
</svg>